%TF.GenerationSoftware,KiCad,Pcbnew,8.0.8*%
%TF.CreationDate,2025-05-08T14:25:14+01:00*%
%TF.ProjectId,esp32-canboard,65737033-322d-4636-916e-626f6172642e,rev?*%
%TF.SameCoordinates,Original*%
%TF.FileFunction,Copper,L1,Top*%
%TF.FilePolarity,Positive*%
%FSLAX46Y46*%
G04 Gerber Fmt 4.6, Leading zero omitted, Abs format (unit mm)*
G04 Created by KiCad (PCBNEW 8.0.8) date 2025-05-08 14:25:14*
%MOMM*%
%LPD*%
G01*
G04 APERTURE LIST*
G04 Aperture macros list*
%AMRoundRect*
0 Rectangle with rounded corners*
0 $1 Rounding radius*
0 $2 $3 $4 $5 $6 $7 $8 $9 X,Y pos of 4 corners*
0 Add a 4 corners polygon primitive as box body*
4,1,4,$2,$3,$4,$5,$6,$7,$8,$9,$2,$3,0*
0 Add four circle primitives for the rounded corners*
1,1,$1+$1,$2,$3*
1,1,$1+$1,$4,$5*
1,1,$1+$1,$6,$7*
1,1,$1+$1,$8,$9*
0 Add four rect primitives between the rounded corners*
20,1,$1+$1,$2,$3,$4,$5,0*
20,1,$1+$1,$4,$5,$6,$7,0*
20,1,$1+$1,$6,$7,$8,$9,0*
20,1,$1+$1,$8,$9,$2,$3,0*%
%AMFreePoly0*
4,1,19,0.500000,-0.750000,0.000000,-0.750000,0.000000,-0.744911,-0.071157,-0.744911,-0.207708,-0.704816,-0.327430,-0.627875,-0.420627,-0.520320,-0.479746,-0.390866,-0.500000,-0.250000,-0.500000,0.250000,-0.479746,0.390866,-0.420627,0.520320,-0.327430,0.627875,-0.207708,0.704816,-0.071157,0.744911,0.000000,0.744911,0.000000,0.750000,0.500000,0.750000,0.500000,-0.750000,0.500000,-0.750000,
$1*%
%AMFreePoly1*
4,1,19,0.000000,0.744911,0.071157,0.744911,0.207708,0.704816,0.327430,0.627875,0.420627,0.520320,0.479746,0.390866,0.500000,0.250000,0.500000,-0.250000,0.479746,-0.390866,0.420627,-0.520320,0.327430,-0.627875,0.207708,-0.704816,0.071157,-0.744911,0.000000,-0.744911,0.000000,-0.750000,-0.500000,-0.750000,-0.500000,0.750000,0.000000,0.750000,0.000000,0.744911,0.000000,0.744911,
$1*%
G04 Aperture macros list end*
%TA.AperFunction,ComponentPad*%
%ADD10C,5.250000*%
%TD*%
%TA.AperFunction,SMDPad,CuDef*%
%ADD11RoundRect,0.250000X-0.450000X0.262500X-0.450000X-0.262500X0.450000X-0.262500X0.450000X0.262500X0*%
%TD*%
%TA.AperFunction,SMDPad,CuDef*%
%ADD12RoundRect,0.250000X-0.262500X-0.450000X0.262500X-0.450000X0.262500X0.450000X-0.262500X0.450000X0*%
%TD*%
%TA.AperFunction,SMDPad,CuDef*%
%ADD13RoundRect,0.250000X0.625000X-0.312500X0.625000X0.312500X-0.625000X0.312500X-0.625000X-0.312500X0*%
%TD*%
%TA.AperFunction,SMDPad,CuDef*%
%ADD14RoundRect,0.250000X0.250000X0.475000X-0.250000X0.475000X-0.250000X-0.475000X0.250000X-0.475000X0*%
%TD*%
%TA.AperFunction,SMDPad,CuDef*%
%ADD15RoundRect,0.250000X0.262500X0.450000X-0.262500X0.450000X-0.262500X-0.450000X0.262500X-0.450000X0*%
%TD*%
%TA.AperFunction,SMDPad,CuDef*%
%ADD16RoundRect,0.250000X0.650000X-1.000000X0.650000X1.000000X-0.650000X1.000000X-0.650000X-1.000000X0*%
%TD*%
%TA.AperFunction,SMDPad,CuDef*%
%ADD17RoundRect,0.375000X-0.625000X-0.375000X0.625000X-0.375000X0.625000X0.375000X-0.625000X0.375000X0*%
%TD*%
%TA.AperFunction,SMDPad,CuDef*%
%ADD18RoundRect,0.500000X-0.500000X-1.400000X0.500000X-1.400000X0.500000X1.400000X-0.500000X1.400000X0*%
%TD*%
%TA.AperFunction,SMDPad,CuDef*%
%ADD19R,0.950000X3.300000*%
%TD*%
%TA.AperFunction,SMDPad,CuDef*%
%ADD20RoundRect,0.150000X-0.512500X-0.150000X0.512500X-0.150000X0.512500X0.150000X-0.512500X0.150000X0*%
%TD*%
%TA.AperFunction,SMDPad,CuDef*%
%ADD21R,1.000000X0.750000*%
%TD*%
%TA.AperFunction,SMDPad,CuDef*%
%ADD22RoundRect,0.250000X-0.250000X-0.475000X0.250000X-0.475000X0.250000X0.475000X-0.250000X0.475000X0*%
%TD*%
%TA.AperFunction,SMDPad,CuDef*%
%ADD23RoundRect,0.250000X0.450000X-0.262500X0.450000X0.262500X-0.450000X0.262500X-0.450000X-0.262500X0*%
%TD*%
%TA.AperFunction,SMDPad,CuDef*%
%ADD24R,0.650000X1.500000*%
%TD*%
%TA.AperFunction,ComponentPad*%
%ADD25C,1.800000*%
%TD*%
%TA.AperFunction,ComponentPad*%
%ADD26C,4.800000*%
%TD*%
%TA.AperFunction,SMDPad,CuDef*%
%ADD27C,2.000000*%
%TD*%
%TA.AperFunction,SMDPad,CuDef*%
%ADD28RoundRect,0.250000X-0.475000X0.250000X-0.475000X-0.250000X0.475000X-0.250000X0.475000X0.250000X0*%
%TD*%
%TA.AperFunction,SMDPad,CuDef*%
%ADD29FreePoly0,90.000000*%
%TD*%
%TA.AperFunction,SMDPad,CuDef*%
%ADD30FreePoly1,90.000000*%
%TD*%
%TA.AperFunction,SMDPad,CuDef*%
%ADD31RoundRect,0.250000X0.475000X-0.250000X0.475000X0.250000X-0.475000X0.250000X-0.475000X-0.250000X0*%
%TD*%
%TA.AperFunction,SMDPad,CuDef*%
%ADD32R,1.500000X0.900000*%
%TD*%
%TA.AperFunction,SMDPad,CuDef*%
%ADD33R,0.900000X1.500000*%
%TD*%
%TA.AperFunction,HeatsinkPad*%
%ADD34C,0.600000*%
%TD*%
%TA.AperFunction,SMDPad,CuDef*%
%ADD35R,3.900000X3.900000*%
%TD*%
%TA.AperFunction,SMDPad,CuDef*%
%ADD36R,1.150000X0.600000*%
%TD*%
%TA.AperFunction,SMDPad,CuDef*%
%ADD37R,1.150000X0.300000*%
%TD*%
%TA.AperFunction,ComponentPad*%
%ADD38O,1.850000X1.050000*%
%TD*%
%TA.AperFunction,ComponentPad*%
%ADD39O,2.150000X1.050000*%
%TD*%
%TA.AperFunction,SMDPad,CuDef*%
%ADD40R,1.000000X1.000000*%
%TD*%
%TA.AperFunction,SMDPad,CuDef*%
%ADD41RoundRect,0.243750X0.456250X-0.243750X0.456250X0.243750X-0.456250X0.243750X-0.456250X-0.243750X0*%
%TD*%
%TA.AperFunction,SMDPad,CuDef*%
%ADD42RoundRect,0.243750X-0.243750X-0.456250X0.243750X-0.456250X0.243750X0.456250X-0.243750X0.456250X0*%
%TD*%
%TA.AperFunction,SMDPad,CuDef*%
%ADD43RoundRect,0.150000X0.150000X-0.512500X0.150000X0.512500X-0.150000X0.512500X-0.150000X-0.512500X0*%
%TD*%
%TA.AperFunction,SMDPad,CuDef*%
%ADD44R,1.820000X1.160000*%
%TD*%
%TA.AperFunction,ComponentPad*%
%ADD45C,1.600000*%
%TD*%
%TA.AperFunction,ComponentPad*%
%ADD46O,1.600000X1.600000*%
%TD*%
%TA.AperFunction,ViaPad*%
%ADD47C,0.800000*%
%TD*%
%TA.AperFunction,ViaPad*%
%ADD48C,0.600000*%
%TD*%
%TA.AperFunction,ViaPad*%
%ADD49C,0.700000*%
%TD*%
%TA.AperFunction,Conductor*%
%ADD50C,0.400000*%
%TD*%
%TA.AperFunction,Conductor*%
%ADD51C,0.500000*%
%TD*%
%TA.AperFunction,Conductor*%
%ADD52C,0.300000*%
%TD*%
%TA.AperFunction,Conductor*%
%ADD53C,0.600000*%
%TD*%
%TA.AperFunction,Conductor*%
%ADD54C,0.200000*%
%TD*%
%TA.AperFunction,Conductor*%
%ADD55C,0.450000*%
%TD*%
%TA.AperFunction,Conductor*%
%ADD56C,1.000000*%
%TD*%
%TA.AperFunction,Conductor*%
%ADD57C,0.800000*%
%TD*%
%ADD58C,0.350000*%
%ADD59C,0.300000*%
%ADD60O,1.450000X0.650000*%
%ADD61O,1.750000X0.650000*%
G04 APERTURE END LIST*
D10*
%TO.P,MH2,MH2*%
%TO.N,N/C*%
X125750000Y-74600000D03*
%TD*%
D11*
%TO.P,R11,1*%
%TO.N,Net-(U3-USB_D+)*%
X99550000Y-78195000D03*
%TO.P,R11,2*%
%TO.N,Net-(C11-Pad1)*%
X99550000Y-80020000D03*
%TD*%
D12*
%TO.P,R5,1*%
%TO.N,GND*%
X118515000Y-100490000D03*
%TO.P,R5,2*%
%TO.N,Net-(LED2-K)*%
X120340000Y-100490000D03*
%TD*%
D13*
%TO.P,R7,1*%
%TO.N,Net-(JP2-B)*%
X93500000Y-111015357D03*
%TO.P,R7,2*%
%TO.N,CAN1_H*%
X93500000Y-108090357D03*
%TD*%
D14*
%TO.P,C8,1*%
%TO.N,+3V3*%
X119010000Y-94750000D03*
%TO.P,C8,2*%
%TO.N,GND*%
X117110000Y-94750000D03*
%TD*%
D15*
%TO.P,R16,1*%
%TO.N,AIN1*%
X115572500Y-111502500D03*
%TO.P,R16,2*%
%TO.N,GND*%
X113747500Y-111502500D03*
%TD*%
D16*
%TO.P,D1,1,K*%
%TO.N,+5V*%
X118510000Y-110900000D03*
%TO.P,D1,2,A*%
%TO.N,Net-(D1-A)*%
X118510000Y-106900000D03*
%TD*%
D17*
%TO.P,U2,1,GND*%
%TO.N,GND*%
X121050000Y-93420000D03*
%TO.P,U2,2,VOUT*%
%TO.N,+3V3*%
X121050000Y-95720000D03*
%TO.P,U2,3,VIN*%
%TO.N,+5V*%
X121050000Y-98020000D03*
D18*
%TO.P,U2,4,VOUT*%
%TO.N,+3V3*%
X127350000Y-95720000D03*
%TD*%
D11*
%TO.P,R12,1*%
%TO.N,Net-(U3-USB_D-)*%
X97650000Y-78195000D03*
%TO.P,R12,2*%
%TO.N,Net-(C13-Pad1)*%
X97650000Y-80020000D03*
%TD*%
D19*
%TO.P,L1,1*%
%TO.N,Net-(D1-A)*%
X120712500Y-107450000D03*
%TO.P,L1,2*%
%TO.N,Net-(U1-SW)*%
X123762500Y-107450000D03*
%TD*%
D12*
%TO.P,R25,1*%
%TO.N,AIN4*%
X103547500Y-113400000D03*
%TO.P,R25,2*%
%TO.N,INPUT4*%
X105372500Y-113400000D03*
%TD*%
D15*
%TO.P,R3,1*%
%TO.N,Net-(U1-FB)*%
X123725000Y-102405000D03*
%TO.P,R3,2*%
%TO.N,GND*%
X121900000Y-102405000D03*
%TD*%
D20*
%TO.P,ESD2,1*%
%TO.N,CAN1_L*%
X93287500Y-104500000D03*
%TO.P,ESD2,2*%
%TO.N,CAN1_H*%
X93287500Y-106400000D03*
%TO.P,ESD2,3*%
%TO.N,GND*%
X95562500Y-105450000D03*
%TD*%
D15*
%TO.P,R13,1*%
%TO.N,Net-(CONN2-CC2)*%
X92882500Y-96380000D03*
%TO.P,R13,2*%
%TO.N,GND*%
X91057500Y-96380000D03*
%TD*%
D21*
%TO.P,SW2,1,1*%
%TO.N,GND*%
X121293750Y-85477857D03*
X127293750Y-85477857D03*
%TO.P,SW2,2,2*%
%TO.N,Net-(U3-EN)*%
X121293750Y-89227857D03*
X127293750Y-89227857D03*
%TD*%
D12*
%TO.P,R26,1*%
%TO.N,AIN4*%
X103547500Y-111500000D03*
%TO.P,R26,2*%
%TO.N,GND*%
X105372500Y-111500000D03*
%TD*%
D22*
%TO.P,C1,1*%
%TO.N,+12V*%
X125950000Y-114625000D03*
%TO.P,C1,2*%
%TO.N,GND*%
X127850000Y-114625000D03*
%TD*%
%TO.P,C3,1*%
%TO.N,+12V*%
X125950000Y-110675000D03*
%TO.P,C3,2*%
%TO.N,GND*%
X127850000Y-110675000D03*
%TD*%
D23*
%TO.P,R9,1*%
%TO.N,Net-(U3-IO38)*%
X91790000Y-80020000D03*
%TO.P,R9,2*%
%TO.N,GND*%
X91790000Y-78195000D03*
%TD*%
D20*
%TO.P,U1,1,GND*%
%TO.N,GND*%
X125412500Y-107000000D03*
%TO.P,U1,2,SW*%
%TO.N,Net-(U1-SW)*%
X125412500Y-107950000D03*
%TO.P,U1,3,VIN*%
%TO.N,+12V*%
X125412500Y-108900000D03*
%TO.P,U1,4,FB*%
%TO.N,Net-(U1-FB)*%
X127687500Y-108900000D03*
%TO.P,U1,5,EN*%
%TO.N,unconnected-(U1-EN-Pad5)*%
X127687500Y-107950000D03*
%TO.P,U1,6,BOOT*%
%TO.N,Net-(U1-BOOT)*%
X127687500Y-107000000D03*
%TD*%
D15*
%TO.P,R40,1*%
%TO.N,AIN6*%
X115575000Y-98795000D03*
%TO.P,R40,2*%
%TO.N,GND*%
X113750000Y-98795000D03*
%TD*%
D14*
%TO.P,C17,1*%
%TO.N,AIN3*%
X108810000Y-109570000D03*
%TO.P,C17,2*%
%TO.N,GND*%
X106910000Y-109570000D03*
%TD*%
D12*
%TO.P,R38,1*%
%TO.N,AIN9*%
X103547500Y-100700000D03*
%TO.P,R38,2*%
%TO.N,INPUT9*%
X105372500Y-100700000D03*
%TD*%
%TO.P,R41,1*%
%TO.N,AIN7*%
X110347500Y-98800000D03*
%TO.P,R41,2*%
%TO.N,GND*%
X112172500Y-98800000D03*
%TD*%
D24*
%TO.P,IC1,1,TXD*%
%TO.N,CAN1_TX*%
X98255000Y-96440000D03*
%TO.P,IC1,2,VSS*%
%TO.N,GND*%
X96985000Y-96440000D03*
%TO.P,IC1,3,VDD*%
%TO.N,+5V*%
X95715000Y-96440000D03*
%TO.P,IC1,4,RXD*%
%TO.N,CAN1_RX*%
X94445000Y-96440000D03*
%TO.P,IC1,5,VIO*%
%TO.N,+3V3*%
X94445000Y-101840000D03*
%TO.P,IC1,6,CANL*%
%TO.N,CAN1_L*%
X95715000Y-101840000D03*
%TO.P,IC1,7,CANH*%
%TO.N,CAN1_H*%
X96985000Y-101840000D03*
%TO.P,IC1,8,STBY*%
%TO.N,GND*%
X98255000Y-101840000D03*
%TD*%
D10*
%TO.P,MH3,MH3*%
%TO.N,N/C*%
X94750000Y-74600000D03*
%TD*%
D25*
%TO.P,CONN1,1,1*%
%TO.N,+12V*%
X120250000Y-119754500D03*
%TO.P,CONN1,2,2*%
%TO.N,+5VP*%
X117750000Y-119754500D03*
%TO.P,CONN1,3,3*%
X115250000Y-119754500D03*
%TO.P,CONN1,4,4*%
%TO.N,INPUT6*%
X112750000Y-119754500D03*
%TO.P,CONN1,5,5*%
%TO.N,INPUT7*%
X110250000Y-119754500D03*
%TO.P,CONN1,6,6*%
%TO.N,INPUT8*%
X107750000Y-119754500D03*
%TO.P,CONN1,7,7*%
%TO.N,INPUT9*%
X105250000Y-119754500D03*
%TO.P,CONN1,8,8*%
%TO.N,INPUT10*%
X102750000Y-119754500D03*
%TO.P,CONN1,9,9*%
%TO.N,CAN1_H*%
X100250000Y-119754500D03*
%TO.P,CONN1,10,10*%
%TO.N,GND*%
X120250000Y-122754500D03*
%TO.P,CONN1,11,11*%
X117750000Y-122754500D03*
%TO.P,CONN1,12,12*%
X115250000Y-122754500D03*
%TO.P,CONN1,13,13*%
%TO.N,INPUT1*%
X112750000Y-122754500D03*
%TO.P,CONN1,14,14*%
%TO.N,INPUT2*%
X110250000Y-122754500D03*
%TO.P,CONN1,15,15*%
%TO.N,INPUT3*%
X107750000Y-122754500D03*
%TO.P,CONN1,16,16*%
%TO.N,INPUT4*%
X105250000Y-122754500D03*
%TO.P,CONN1,17,17*%
%TO.N,INPUT5*%
X102750000Y-122754500D03*
%TO.P,CONN1,18,18*%
%TO.N,CAN1_L*%
X100250000Y-122754500D03*
D26*
%TO.P,CONN1,19,19*%
%TO.N,unconnected-(CONN1-Pad19)*%
X94750000Y-124254500D03*
%TO.P,CONN1,20,20*%
%TO.N,unconnected-(CONN1-Pad20)*%
X125750000Y-124254500D03*
%TD*%
D27*
%TO.P,TP3,1,1*%
%TO.N,+3V3*%
X126060000Y-101080000D03*
%TD*%
D14*
%TO.P,C9,1*%
%TO.N,GND*%
X127287500Y-91130000D03*
%TO.P,C9,2*%
%TO.N,Net-(U3-EN)*%
X125387500Y-91130000D03*
%TD*%
%TO.P,C14,1*%
%TO.N,USB_VBUS*%
X96350000Y-81960000D03*
%TO.P,C14,2*%
%TO.N,GND*%
X94450000Y-81960000D03*
%TD*%
D12*
%TO.P,R20,1*%
%TO.N,AIN2*%
X110347500Y-111500000D03*
%TO.P,R20,2*%
%TO.N,GND*%
X112172500Y-111500000D03*
%TD*%
D14*
%TO.P,C7,1*%
%TO.N,+5V*%
X119010000Y-96760000D03*
%TO.P,C7,2*%
%TO.N,GND*%
X117110000Y-96760000D03*
%TD*%
D28*
%TO.P,C12,1*%
%TO.N,+3V3*%
X97450000Y-104500000D03*
%TO.P,C12,2*%
%TO.N,GND*%
X97450000Y-106400000D03*
%TD*%
D15*
%TO.P,R23,1*%
%TO.N,AIN3*%
X108772500Y-111500000D03*
%TO.P,R23,2*%
%TO.N,GND*%
X106947500Y-111500000D03*
%TD*%
D10*
%TO.P,MH1,MH1*%
%TO.N,N/C*%
X94750000Y-115450000D03*
%TD*%
D12*
%TO.P,R8,1*%
%TO.N,+3V3*%
X121995000Y-91130000D03*
%TO.P,R8,2*%
%TO.N,Net-(U3-EN)*%
X123820000Y-91130000D03*
%TD*%
D14*
%TO.P,C22,1*%
%TO.N,AIN8*%
X108810000Y-96870000D03*
%TO.P,C22,2*%
%TO.N,GND*%
X106910000Y-96870000D03*
%TD*%
D12*
%TO.P,R4,1*%
%TO.N,GND*%
X122600000Y-114600000D03*
%TO.P,R4,2*%
%TO.N,Net-(LED1-K)*%
X124425000Y-114600000D03*
%TD*%
D14*
%TO.P,C15,1*%
%TO.N,AIN1*%
X115610000Y-109575000D03*
%TO.P,C15,2*%
%TO.N,GND*%
X113710000Y-109575000D03*
%TD*%
D15*
%TO.P,R39,1*%
%TO.N,AIN10*%
X101972500Y-100700000D03*
%TO.P,R39,2*%
%TO.N,INPUT10*%
X100147500Y-100700000D03*
%TD*%
D29*
%TO.P,JP2,1,A*%
%TO.N,CAN1_L*%
X96382500Y-110202857D03*
D30*
%TO.P,JP2,2,B*%
%TO.N,Net-(JP2-B)*%
X96382500Y-108902857D03*
%TD*%
D15*
%TO.P,R2,1*%
%TO.N,Net-(U1-FB)*%
X123725000Y-104300000D03*
%TO.P,R2,2*%
%TO.N,Net-(D1-A)*%
X121900000Y-104300000D03*
%TD*%
D22*
%TO.P,C6,1*%
%TO.N,Net-(D1-A)*%
X117570000Y-104420000D03*
%TO.P,C6,2*%
%TO.N,GND*%
X119470000Y-104420000D03*
%TD*%
D15*
%TO.P,R35,1*%
%TO.N,AIN6*%
X115575000Y-100695000D03*
%TO.P,R35,2*%
%TO.N,INPUT6*%
X113750000Y-100695000D03*
%TD*%
D31*
%TO.P,C11,1*%
%TO.N,Net-(C11-Pad1)*%
X93730000Y-80020000D03*
%TO.P,C11,2*%
%TO.N,GND*%
X93730000Y-78120000D03*
%TD*%
D15*
%TO.P,R22,1*%
%TO.N,AIN3*%
X108772500Y-113400000D03*
%TO.P,R22,2*%
%TO.N,INPUT3*%
X106947500Y-113400000D03*
%TD*%
D32*
%TO.P,U3,1,GND*%
%TO.N,GND*%
X119000000Y-90670000D03*
%TO.P,U3,2,3V3*%
%TO.N,+3V3*%
X119000000Y-89400000D03*
%TO.P,U3,3,EN*%
%TO.N,Net-(U3-EN)*%
X119000000Y-88130000D03*
%TO.P,U3,4,IO4*%
%TO.N,AIN4*%
X119000000Y-86860000D03*
%TO.P,U3,5,IO5*%
%TO.N,AIN5*%
X119000000Y-85590000D03*
%TO.P,U3,6,IO6*%
%TO.N,AIN6*%
X119000000Y-84320000D03*
%TO.P,U3,7,IO7*%
%TO.N,AIN7*%
X119000000Y-83050000D03*
%TO.P,U3,8,IO15*%
%TO.N,unconnected-(U3-IO15-Pad8)*%
X119000000Y-81780000D03*
%TO.P,U3,9,IO16*%
%TO.N,unconnected-(U3-IO16-Pad9)*%
X119000000Y-80510000D03*
%TO.P,U3,10,IO17*%
%TO.N,unconnected-(U3-IO17-Pad10)*%
X119000000Y-79240000D03*
%TO.P,U3,11,IO18*%
%TO.N,unconnected-(U3-IO18-Pad11)*%
X119000000Y-77970000D03*
%TO.P,U3,12,IO8*%
%TO.N,AIN8*%
X119000000Y-76700000D03*
%TO.P,U3,13,USB_D-*%
%TO.N,Net-(U3-USB_D-)*%
X119000000Y-75430000D03*
%TO.P,U3,14,USB_D+*%
%TO.N,Net-(U3-USB_D+)*%
X119000000Y-74160000D03*
D33*
%TO.P,U3,15,IO3*%
%TO.N,AIN3*%
X117235000Y-72910000D03*
%TO.P,U3,16,IO46*%
%TO.N,unconnected-(U3-IO46-Pad16)*%
X115965000Y-72910000D03*
%TO.P,U3,17,IO9*%
%TO.N,AIN9*%
X114695000Y-72910000D03*
%TO.P,U3,18,IO10*%
%TO.N,AIN10*%
X113425000Y-72910000D03*
%TO.P,U3,19,IO11*%
%TO.N,CAN1_RX*%
X112155000Y-72910000D03*
%TO.P,U3,20,IO12*%
%TO.N,CAN1_TX*%
X110885000Y-72910000D03*
%TO.P,U3,21,IO13*%
%TO.N,unconnected-(U3-IO13-Pad21)*%
X109615000Y-72910000D03*
%TO.P,U3,22,IO14*%
%TO.N,unconnected-(U3-IO14-Pad22)*%
X108345000Y-72910000D03*
%TO.P,U3,23,IO21*%
%TO.N,unconnected-(U3-IO21-Pad23)*%
X107075000Y-72910000D03*
%TO.P,U3,24,IO47*%
%TO.N,unconnected-(U3-IO47-Pad24)*%
X105805000Y-72910000D03*
%TO.P,U3,25,IO48*%
%TO.N,unconnected-(U3-IO48-Pad25)*%
X104535000Y-72910000D03*
%TO.P,U3,26,IO45*%
%TO.N,unconnected-(U3-IO45-Pad26)*%
X103265000Y-72910000D03*
D32*
%TO.P,U3,27,IO0*%
%TO.N,Net-(U3-IO0)*%
X101500000Y-74160000D03*
%TO.P,U3,28,IO35*%
%TO.N,unconnected-(U3-IO35-Pad28)*%
X101500000Y-75430000D03*
%TO.P,U3,29,IO36*%
%TO.N,unconnected-(U3-IO36-Pad29)*%
X101500000Y-76700000D03*
%TO.P,U3,30,IO37*%
%TO.N,unconnected-(U3-IO37-Pad30)*%
X101500000Y-77970000D03*
%TO.P,U3,31,IO38*%
%TO.N,Net-(U3-IO38)*%
X101500000Y-79240000D03*
%TO.P,U3,32,IO39*%
%TO.N,unconnected-(U3-IO39-Pad32)*%
X101500000Y-80510000D03*
%TO.P,U3,33,IO40*%
%TO.N,unconnected-(U3-IO40-Pad33)*%
X101500000Y-81780000D03*
%TO.P,U3,34,IO41*%
%TO.N,unconnected-(U3-IO41-Pad34)*%
X101500000Y-83050000D03*
%TO.P,U3,35,IO42*%
%TO.N,unconnected-(U3-IO42-Pad35)*%
X101500000Y-84320000D03*
%TO.P,U3,36,RXD0*%
%TO.N,unconnected-(U3-RXD0-Pad36)*%
X101500000Y-85590000D03*
%TO.P,U3,37,TXD0*%
%TO.N,unconnected-(U3-TXD0-Pad37)*%
X101500000Y-86860000D03*
%TO.P,U3,38,IO2*%
%TO.N,AIN2*%
X101500000Y-88130000D03*
%TO.P,U3,39,IO1*%
%TO.N,AIN1*%
X101500000Y-89400000D03*
%TO.P,U3,40,GND*%
%TO.N,GND*%
X101500000Y-90670000D03*
D34*
%TO.P,U3,41,GND*%
X113150000Y-83650000D03*
X113150000Y-82250000D03*
X112450000Y-84350000D03*
X112450000Y-82950000D03*
X112450000Y-81550000D03*
X111750000Y-83650000D03*
D35*
X111750000Y-82950000D03*
D34*
X111750000Y-82250000D03*
X111050000Y-84350000D03*
X111050000Y-82950000D03*
X111050000Y-81550000D03*
X110350000Y-83650000D03*
X110350000Y-82250000D03*
%TD*%
D14*
%TO.P,C19,1*%
%TO.N,AIN5*%
X102010000Y-109570000D03*
%TO.P,C19,2*%
%TO.N,GND*%
X100110000Y-109570000D03*
%TD*%
D12*
%TO.P,R36,1*%
%TO.N,AIN7*%
X110347500Y-100700000D03*
%TO.P,R36,2*%
%TO.N,INPUT7*%
X112172500Y-100700000D03*
%TD*%
D15*
%TO.P,R29,1*%
%TO.N,AIN5*%
X101972500Y-111500000D03*
%TO.P,R29,2*%
%TO.N,GND*%
X100147500Y-111500000D03*
%TD*%
%TO.P,R28,1*%
%TO.N,AIN5*%
X101972500Y-113400000D03*
%TO.P,R28,2*%
%TO.N,INPUT5*%
X100147500Y-113400000D03*
%TD*%
D27*
%TO.P,TP2,1,1*%
%TO.N,GND*%
X121500000Y-75040000D03*
%TD*%
D22*
%TO.P,C5,1*%
%TO.N,Net-(D1-A)*%
X118450000Y-102430000D03*
%TO.P,C5,2*%
%TO.N,GND*%
X120350000Y-102430000D03*
%TD*%
%TO.P,C2,1*%
%TO.N,+12V*%
X125950000Y-112650000D03*
%TO.P,C2,2*%
%TO.N,GND*%
X127850000Y-112650000D03*
%TD*%
D15*
%TO.P,R42,1*%
%TO.N,AIN8*%
X108772500Y-98800000D03*
%TO.P,R42,2*%
%TO.N,GND*%
X106947500Y-98800000D03*
%TD*%
D22*
%TO.P,C21,1*%
%TO.N,AIN7*%
X110310000Y-96870000D03*
%TO.P,C21,2*%
%TO.N,GND*%
X112210000Y-96870000D03*
%TD*%
D15*
%TO.P,R44,1*%
%TO.N,AIN10*%
X101972500Y-98800000D03*
%TO.P,R44,2*%
%TO.N,GND*%
X100147500Y-98800000D03*
%TD*%
D36*
%TO.P,CONN2,A1_B12,GND*%
%TO.N,GND*%
X97605000Y-87130000D03*
%TO.P,CONN2,A4_B9,VBUS*%
%TO.N,USB_VBUS*%
X97605000Y-87930000D03*
D37*
%TO.P,CONN2,A5,CC1*%
%TO.N,Net-(CONN2-CC1)*%
X97605000Y-89080000D03*
%TO.P,CONN2,A6,D+*%
%TO.N,Net-(CONN2-D+-PadA6)*%
X97605000Y-90080000D03*
%TO.P,CONN2,A7,D-*%
%TO.N,Net-(CONN2-D--PadA7)*%
X97605000Y-90580000D03*
%TO.P,CONN2,A8,SBU1*%
%TO.N,unconnected-(CONN2-SBU1-PadA8)*%
X97605000Y-91580000D03*
D36*
%TO.P,CONN2,A9_B4,VBUS*%
%TO.N,USB_VBUS*%
X97605000Y-92730000D03*
%TO.P,CONN2,A12_B1,GND*%
%TO.N,GND*%
X97605000Y-93530000D03*
D37*
%TO.P,CONN2,B5,CC2*%
%TO.N,Net-(CONN2-CC2)*%
X97605000Y-92080000D03*
%TO.P,CONN2,B6,D+*%
%TO.N,Net-(CONN2-D+-PadA6)*%
X97605000Y-91080000D03*
%TO.P,CONN2,B7,D-*%
%TO.N,Net-(CONN2-D--PadA7)*%
X97605000Y-89580000D03*
%TO.P,CONN2,B8,SBU2*%
%TO.N,unconnected-(CONN2-SBU2-PadB8)*%
X97605000Y-88580000D03*
D38*
%TO.P,CONN2,SH1,SHIELD*%
%TO.N,GND*%
X92880000Y-86010000D03*
%TO.P,CONN2,SH2,SHIELD*%
X92880000Y-94650000D03*
D39*
%TO.P,CONN2,SH3,SHIELD*%
X97030000Y-86010000D03*
%TO.P,CONN2,SH4,SHIELD*%
X97030000Y-94650000D03*
%TD*%
D22*
%TO.P,C18,1*%
%TO.N,AIN4*%
X103510000Y-109570000D03*
%TO.P,C18,2*%
%TO.N,GND*%
X105410000Y-109570000D03*
%TD*%
D27*
%TO.P,TP4,1,1*%
%TO.N,+12V*%
X122060000Y-117320000D03*
%TD*%
D14*
%TO.P,C24,1*%
%TO.N,AIN10*%
X102010000Y-96870000D03*
%TO.P,C24,2*%
%TO.N,GND*%
X100110000Y-96870000D03*
%TD*%
%TO.P,C10,1*%
%TO.N,+5V*%
X92882500Y-100230000D03*
%TO.P,C10,2*%
%TO.N,GND*%
X90982500Y-100230000D03*
%TD*%
D40*
%TO.P,D2,1,K*%
%TO.N,+5V*%
X92500000Y-84040000D03*
%TO.P,D2,2,A*%
%TO.N,USB_VBUS*%
X95900000Y-84040000D03*
%TD*%
D22*
%TO.P,C23,1*%
%TO.N,AIN9*%
X103510000Y-96870000D03*
%TO.P,C23,2*%
%TO.N,GND*%
X105410000Y-96870000D03*
%TD*%
D12*
%TO.P,R6,1*%
%TO.N,Net-(R6-Pad1)*%
X121275000Y-77490000D03*
%TO.P,R6,2*%
%TO.N,GND*%
X123100000Y-77490000D03*
%TD*%
D41*
%TO.P,LED1,1,K*%
%TO.N,Net-(LED1-K)*%
X124225000Y-112300000D03*
%TO.P,LED1,2,A*%
%TO.N,+5V*%
X124225000Y-110425000D03*
%TD*%
D15*
%TO.P,R37,1*%
%TO.N,AIN8*%
X108772500Y-100700000D03*
%TO.P,R37,2*%
%TO.N,INPUT8*%
X106947500Y-100700000D03*
%TD*%
%TO.P,R15,1*%
%TO.N,AIN1*%
X115572500Y-113405000D03*
%TO.P,R15,2*%
%TO.N,INPUT1*%
X113747500Y-113405000D03*
%TD*%
D12*
%TO.P,R19,1*%
%TO.N,AIN2*%
X110347500Y-113400000D03*
%TO.P,R19,2*%
%TO.N,INPUT2*%
X112172500Y-113400000D03*
%TD*%
D27*
%TO.P,TP1,1,1*%
%TO.N,+5V*%
X121760000Y-111150000D03*
%TD*%
D11*
%TO.P,R1,1*%
%TO.N,Net-(C4-Pad2)*%
X127650000Y-103637500D03*
%TO.P,R1,2*%
%TO.N,Net-(U1-BOOT)*%
X127650000Y-105462500D03*
%TD*%
D31*
%TO.P,C13,1*%
%TO.N,Net-(C13-Pad1)*%
X95700000Y-80020000D03*
%TO.P,C13,2*%
%TO.N,GND*%
X95700000Y-78120000D03*
%TD*%
D42*
%TO.P,LED2,1,K*%
%TO.N,Net-(LED2-K)*%
X121865000Y-100510000D03*
%TO.P,LED2,2,A*%
%TO.N,+3V3*%
X123740000Y-100510000D03*
%TD*%
D15*
%TO.P,R14,1*%
%TO.N,Net-(CONN2-CC1)*%
X92882500Y-98280000D03*
%TO.P,R14,2*%
%TO.N,GND*%
X91057500Y-98280000D03*
%TD*%
D12*
%TO.P,R43,1*%
%TO.N,AIN9*%
X103547500Y-98800000D03*
%TO.P,R43,2*%
%TO.N,GND*%
X105372500Y-98800000D03*
%TD*%
D31*
%TO.P,C4,1*%
%TO.N,Net-(U1-SW)*%
X125475000Y-105500000D03*
%TO.P,C4,2*%
%TO.N,Net-(C4-Pad2)*%
X125475000Y-103600000D03*
%TD*%
D43*
%TO.P,ESD1,1,I/O1*%
%TO.N,Net-(CONN2-D--PadA7)*%
X97850000Y-83975000D03*
%TO.P,ESD1,2,GND*%
%TO.N,GND*%
X98800000Y-83975000D03*
%TO.P,ESD1,3,I/O2*%
%TO.N,Net-(CONN2-D+-PadA6)*%
X99750000Y-83975000D03*
%TO.P,ESD1,4,I/O2*%
%TO.N,Net-(C11-Pad1)*%
X99750000Y-81700000D03*
%TO.P,ESD1,5,VBUS*%
%TO.N,USB_VBUS*%
X98800000Y-81700000D03*
%TO.P,ESD1,6,I/O1*%
%TO.N,Net-(C13-Pad1)*%
X97850000Y-81700000D03*
%TD*%
D12*
%TO.P,R10,1*%
%TO.N,Net-(U3-IO38)*%
X91105000Y-81960000D03*
%TO.P,R10,2*%
%TO.N,USB_VBUS*%
X92930000Y-81960000D03*
%TD*%
D44*
%TO.P,F1,1,1*%
%TO.N,+5V*%
X118500000Y-113690000D03*
%TO.P,F1,2,2*%
%TO.N,+5VP*%
X118500000Y-116640000D03*
%TD*%
D21*
%TO.P,SW1,1,1*%
%TO.N,Net-(R6-Pad1)*%
X121293750Y-79380000D03*
X127293750Y-79380000D03*
%TO.P,SW1,2,2*%
%TO.N,Net-(U3-IO0)*%
X121293750Y-83130000D03*
X127293750Y-83130000D03*
%TD*%
D22*
%TO.P,C16,1*%
%TO.N,AIN2*%
X110310000Y-109570000D03*
%TO.P,C16,2*%
%TO.N,GND*%
X112210000Y-109570000D03*
%TD*%
D14*
%TO.P,C20,1*%
%TO.N,AIN6*%
X115612500Y-96870000D03*
%TO.P,C20,2*%
%TO.N,GND*%
X113712500Y-96870000D03*
%TD*%
D45*
%TO.P,R18,1*%
%TO.N,+5VP*%
X111260000Y-106380000D03*
D46*
%TO.P,R18,2*%
%TO.N,INPUT2*%
X111260000Y-116540000D03*
%TD*%
D45*
%TO.P,R27,1*%
%TO.N,+5VP*%
X101060000Y-106380000D03*
D46*
%TO.P,R27,2*%
%TO.N,INPUT5*%
X101060000Y-116540000D03*
%TD*%
D45*
%TO.P,R32,1*%
%TO.N,+5VP*%
X107860000Y-93690000D03*
D46*
%TO.P,R32,2*%
%TO.N,INPUT8*%
X107860000Y-103850000D03*
%TD*%
D45*
%TO.P,R30,1*%
%TO.N,+5VP*%
X114660000Y-93690000D03*
D46*
%TO.P,R30,2*%
%TO.N,INPUT6*%
X114660000Y-103850000D03*
%TD*%
D45*
%TO.P,R24,1*%
%TO.N,+5VP*%
X104460000Y-106380000D03*
D46*
%TO.P,R24,2*%
%TO.N,INPUT4*%
X104460000Y-116540000D03*
%TD*%
D45*
%TO.P,R34,1*%
%TO.N,+5VP*%
X101060000Y-93690000D03*
D46*
%TO.P,R34,2*%
%TO.N,INPUT10*%
X101060000Y-103850000D03*
%TD*%
D45*
%TO.P,R17,1*%
%TO.N,+5VP*%
X114660000Y-106380000D03*
D46*
%TO.P,R17,2*%
%TO.N,INPUT1*%
X114660000Y-116540000D03*
%TD*%
D45*
%TO.P,R21,1*%
%TO.N,+5VP*%
X107860000Y-106380000D03*
D46*
%TO.P,R21,2*%
%TO.N,INPUT3*%
X107860000Y-116540000D03*
%TD*%
D45*
%TO.P,R33,1*%
%TO.N,+5VP*%
X104460000Y-93690000D03*
D46*
%TO.P,R33,2*%
%TO.N,INPUT9*%
X104460000Y-103850000D03*
%TD*%
D45*
%TO.P,R31,1*%
%TO.N,+5VP*%
X111260000Y-93690000D03*
D46*
%TO.P,R31,2*%
%TO.N,INPUT7*%
X111260000Y-103850000D03*
%TD*%
D47*
%TO.N,GND*%
X106890000Y-94870000D03*
X126560000Y-106370000D03*
X91932500Y-101620000D03*
X127850000Y-116170000D03*
X124350000Y-85480000D03*
X119240000Y-93220000D03*
X121380000Y-114600000D03*
X120690000Y-103850000D03*
X114159032Y-92175205D03*
X113600000Y-95250000D03*
X103050000Y-90670000D03*
X99930000Y-108400000D03*
X112172500Y-108360000D03*
X105410000Y-108100000D03*
X98800000Y-87130000D03*
X98950000Y-98800000D03*
X95562500Y-106550000D03*
X91790000Y-76680000D03*
X111380000Y-92180000D03*
%TO.N,+5V*%
X98950000Y-100070000D03*
X95715000Y-98000000D03*
D48*
%TO.N,+3V3*%
X103730000Y-102560000D03*
X101740000Y-102050000D03*
D47*
X120620000Y-91130000D03*
X94445000Y-103240000D03*
X96060000Y-104500000D03*
X127350000Y-92980000D03*
D48*
X110750000Y-102560000D03*
X107450000Y-102560000D03*
X115150000Y-102440000D03*
X108772500Y-102560000D03*
X105372500Y-102560000D03*
D47*
%TO.N,USB_VBUS*%
X99000000Y-88130000D03*
X94580000Y-85510000D03*
X99320000Y-91610000D03*
%TO.N,AIN1*%
X110270000Y-90180000D03*
X110310000Y-107770000D03*
%TO.N,AIN2*%
X108810000Y-107770000D03*
X109830000Y-88130000D03*
%TO.N,AIN3*%
X116440000Y-74400000D03*
X106910000Y-107770000D03*
X109010000Y-89270000D03*
X113610000Y-75430000D03*
%TO.N,AIN4*%
X103510000Y-107770000D03*
X117595000Y-86975331D03*
%TO.N,AIN5*%
X117595000Y-85875000D03*
X101060000Y-108045025D03*
%TO.N,CAN1_H*%
X98510000Y-108000000D03*
X95000000Y-108000000D03*
%TO.N,Net-(CONN2-CC1)*%
X94460000Y-98999647D03*
X98980000Y-89160000D03*
%TO.N,Net-(CONN2-CC2)*%
X94550000Y-94800000D03*
X96350000Y-92100000D03*
%TO.N,CAN1_TX*%
X98255000Y-98000000D03*
X108980871Y-77775000D03*
%TO.N,CAN1_RX*%
X94460000Y-98000000D03*
X108200000Y-78525000D03*
D49*
%TO.N,Net-(U1-FB)*%
X127000000Y-109630000D03*
X122910000Y-105380000D03*
D47*
%TO.N,Net-(R6-Pad1)*%
X126200000Y-79380000D03*
X122380000Y-79380000D03*
D48*
%TO.N,Net-(U3-IO38)*%
X91105000Y-83220000D03*
X102820000Y-79240000D03*
D47*
%TO.N,Net-(U3-USB_D+)*%
X99588504Y-76125000D03*
X117575000Y-74400000D03*
%TO.N,Net-(U3-USB_D-)*%
X98800000Y-76875000D03*
X117575000Y-75430000D03*
%TO.N,Net-(U3-IO0)*%
X122380000Y-83130000D03*
X125040000Y-83130000D03*
X111140000Y-79380000D03*
%TO.N,+5VP*%
X116700000Y-116640000D03*
%TD*%
D50*
%TO.N,GND*%
X106947500Y-98800000D02*
X106947500Y-96907500D01*
D51*
X120120000Y-104420000D02*
X120690000Y-103850000D01*
D52*
X100110000Y-97420000D02*
X100110000Y-96870000D01*
D51*
X99750000Y-93232233D02*
X99750000Y-96510000D01*
D50*
X124350000Y-85470000D02*
X124360000Y-85480000D01*
D51*
X97030000Y-94650000D02*
X97500000Y-94650000D01*
D53*
X117915000Y-93220000D02*
X119240000Y-93220000D01*
D51*
X102292233Y-90690000D02*
X99750000Y-93232233D01*
D50*
X105372500Y-98800000D02*
X105372500Y-96907500D01*
X93730000Y-78120000D02*
X95700000Y-78120000D01*
D51*
X102302233Y-90680000D02*
X102292233Y-90690000D01*
D52*
X100110000Y-108580000D02*
X100110000Y-109570000D01*
X98150000Y-101735000D02*
X98150000Y-99600000D01*
D50*
X123100000Y-76640000D02*
X121500000Y-75040000D01*
D51*
X127850000Y-114625000D02*
X127850000Y-116170000D01*
D52*
X96985000Y-98435000D02*
X96985000Y-96440000D01*
D50*
X113460000Y-92874237D02*
X113460000Y-95110000D01*
D53*
X117110000Y-94750000D02*
X117110000Y-96760000D01*
D50*
X114159032Y-92175205D02*
X113460000Y-92874237D01*
X127287500Y-91130000D02*
X124997500Y-93420000D01*
D53*
X120850000Y-93220000D02*
X121050000Y-93420000D01*
D51*
X118525000Y-100605000D02*
X120350000Y-102430000D01*
D50*
X111280000Y-92080000D02*
X107290000Y-92080000D01*
D54*
X118525000Y-100510000D02*
X118525000Y-100605000D01*
D50*
X124350000Y-83710000D02*
X123800000Y-83160000D01*
D52*
X99930000Y-108400000D02*
X100110000Y-108580000D01*
D50*
X124997500Y-93420000D02*
X121050000Y-93420000D01*
D52*
X113750000Y-96939912D02*
X113750000Y-98795000D01*
X105500000Y-108100000D02*
X105372500Y-108227500D01*
D51*
X121915000Y-102625000D02*
X121875000Y-102625000D01*
D52*
X98950000Y-98580000D02*
X100110000Y-97420000D01*
D50*
X98800000Y-87050000D02*
X98800000Y-83312501D01*
D52*
X113820000Y-96870000D02*
X113712500Y-96870000D01*
D50*
X124350000Y-85480000D02*
X124350000Y-83710000D01*
D51*
X120350000Y-103510000D02*
X120690000Y-103850000D01*
D52*
X95562500Y-106550000D02*
X97300000Y-106550000D01*
D50*
X111380000Y-92180000D02*
X111280000Y-92080000D01*
D52*
X105372500Y-108227500D02*
X105372500Y-111500000D01*
D53*
X119240000Y-90910000D02*
X119000000Y-90670000D01*
D52*
X98950000Y-98800000D02*
X98950000Y-98580000D01*
D51*
X119470000Y-104420000D02*
X120120000Y-104420000D01*
D52*
X98255000Y-101840000D02*
X98150000Y-101735000D01*
D50*
X124350000Y-85480000D02*
X127293750Y-85480000D01*
D55*
X121875000Y-102625000D02*
X120690000Y-103810000D01*
D51*
X120350000Y-102430000D02*
X120350000Y-103510000D01*
X102272233Y-90670000D02*
X102292233Y-90690000D01*
D50*
X123800000Y-78190000D02*
X123100000Y-77490000D01*
D53*
X119240000Y-93220000D02*
X120850000Y-93220000D01*
D50*
X94450000Y-84440000D02*
X92880000Y-86010000D01*
D52*
X105500000Y-108100000D02*
X106947500Y-109547500D01*
D50*
X124350000Y-85480000D02*
X121293750Y-85480000D01*
X94450000Y-81760000D02*
X94450000Y-84440000D01*
D52*
X112210000Y-96870000D02*
X113712500Y-96870000D01*
D50*
X91865000Y-78120000D02*
X91790000Y-78195000D01*
D51*
X120690000Y-103810000D02*
X120690000Y-103850000D01*
D54*
X106890000Y-94870000D02*
X106910000Y-94890000D01*
D52*
X112210000Y-96870000D02*
X112210000Y-98762500D01*
D50*
X91057500Y-96380000D02*
X91057500Y-100155000D01*
D54*
X100147500Y-109607500D02*
X100110000Y-109570000D01*
D52*
X106947500Y-109547500D02*
X106947500Y-111500000D01*
X98950000Y-98800000D02*
X100147500Y-98800000D01*
D53*
X117110000Y-94025000D02*
X117915000Y-93220000D01*
D50*
X123100000Y-77490000D02*
X123100000Y-76640000D01*
D51*
X125930000Y-107000000D02*
X126560000Y-106370000D01*
D50*
X90982500Y-100670000D02*
X91932500Y-101620000D01*
D52*
X95562500Y-105450000D02*
X95562500Y-106550000D01*
D50*
X123800000Y-83160000D02*
X123800000Y-78190000D01*
D52*
X112495000Y-108360000D02*
X112172500Y-108360000D01*
D50*
X106660000Y-94640000D02*
X106760000Y-94740000D01*
X98800000Y-87130000D02*
X97605000Y-87130000D01*
D53*
X117110000Y-94750000D02*
X117110000Y-94025000D01*
D50*
X90982500Y-100230000D02*
X90982500Y-100670000D01*
X91790000Y-78195000D02*
X91790000Y-76680000D01*
D54*
X98800000Y-83312501D02*
X98800000Y-83975000D01*
D51*
X103050000Y-90680000D02*
X102302233Y-90680000D01*
X102292233Y-90690000D02*
X99452233Y-93530000D01*
X122600000Y-114600000D02*
X121380000Y-114600000D01*
D52*
X98150000Y-99600000D02*
X98950000Y-98800000D01*
D54*
X106890000Y-94870000D02*
X106760000Y-94740000D01*
D50*
X107290000Y-92080000D02*
X106660000Y-92710000D01*
D52*
X113712500Y-95362500D02*
X113600000Y-95250000D01*
X113747500Y-109597500D02*
X113747500Y-111502500D01*
D50*
X105410000Y-96870000D02*
X106910000Y-96870000D01*
D52*
X113712500Y-96870000D02*
X113712500Y-95362500D01*
D50*
X106660000Y-92710000D02*
X106660000Y-94640000D01*
X93730000Y-78120000D02*
X91865000Y-78120000D01*
D52*
X112210000Y-98762500D02*
X112172500Y-98800000D01*
D51*
X101500000Y-90670000D02*
X102272233Y-90670000D01*
D52*
X113710000Y-109575000D02*
X112495000Y-108360000D01*
D50*
X113460000Y-95110000D02*
X113600000Y-95250000D01*
D52*
X98150000Y-99600000D02*
X96985000Y-98435000D01*
D50*
X106910000Y-94890000D02*
X106910000Y-96870000D01*
D52*
X97300000Y-106550000D02*
X97450000Y-106400000D01*
D51*
X99452233Y-93530000D02*
X97605000Y-93530000D01*
X127850000Y-110675000D02*
X127850000Y-114625000D01*
D52*
X112172500Y-111500000D02*
X112172500Y-108360000D01*
D51*
X101520000Y-90690000D02*
X101500000Y-90670000D01*
D50*
X100147500Y-111500000D02*
X100147500Y-109607500D01*
D53*
X119240000Y-93220000D02*
X119240000Y-90910000D01*
D50*
X98920000Y-87170000D02*
X98800000Y-87050000D01*
D56*
%TO.N,+12V*%
X125950000Y-114625000D02*
X125950000Y-109437500D01*
X125950000Y-118130000D02*
X124325500Y-119754500D01*
X120250000Y-119130000D02*
X122060000Y-117320000D01*
X125950000Y-109437500D02*
X125462500Y-108950000D01*
X124325500Y-119754500D02*
X120250000Y-119754500D01*
X125950000Y-114625000D02*
X125950000Y-118130000D01*
X120250000Y-119754500D02*
X120250000Y-119130000D01*
X125462500Y-108950000D02*
X125412500Y-108950000D01*
D54*
%TO.N,Net-(C4-Pad2)*%
X127375000Y-103600000D02*
X127412500Y-103637500D01*
D50*
X125487500Y-103600000D02*
X127375000Y-103600000D01*
D51*
%TO.N,Net-(U1-SW)*%
X125262500Y-105725000D02*
X124162500Y-105725000D01*
X125412500Y-107950000D02*
X124262500Y-107950000D01*
X124162500Y-105725000D02*
X123762500Y-106125000D01*
D57*
%TO.N,Net-(D1-A)*%
X118510000Y-106900000D02*
X120162500Y-106900000D01*
X120712500Y-105500000D02*
X121912500Y-104300000D01*
X117570000Y-104420000D02*
X117570000Y-105960000D01*
X118450000Y-102430000D02*
X118450000Y-103540000D01*
X120712500Y-107450000D02*
X120712500Y-105500000D01*
X118500000Y-102480000D02*
X118450000Y-102430000D01*
X120162500Y-106900000D02*
X120712500Y-107450000D01*
X118450000Y-103540000D02*
X117570000Y-104420000D01*
X117570000Y-105960000D02*
X118510000Y-106900000D01*
D51*
%TO.N,+5V*%
X100540000Y-105100000D02*
X116530000Y-105100000D01*
X98950000Y-100070000D02*
X99100000Y-100220000D01*
D57*
X118760000Y-98020000D02*
X121050000Y-98020000D01*
X118510000Y-110900000D02*
X121510000Y-110900000D01*
D51*
X95715000Y-98946729D02*
X94431729Y-100230000D01*
X91280000Y-88932947D02*
X95460000Y-93112947D01*
X122485000Y-110425000D02*
X121760000Y-111150000D01*
X99790000Y-104350000D02*
X100540000Y-105100000D01*
X95460000Y-96185000D02*
X95715000Y-96440000D01*
D57*
X117350000Y-99430000D02*
X117350000Y-102705990D01*
X121510000Y-110900000D02*
X121760000Y-111150000D01*
D51*
X95715000Y-96440000D02*
X95715000Y-98000000D01*
D57*
X116470000Y-108310000D02*
X118510000Y-110350000D01*
D51*
X95715000Y-98000000D02*
X95715000Y-98946729D01*
X91280000Y-85210000D02*
X91280000Y-88932947D01*
X94431729Y-100230000D02*
X92882500Y-100230000D01*
D57*
X119010000Y-97770000D02*
X119010000Y-96760000D01*
X118510000Y-110350000D02*
X118510000Y-110900000D01*
D51*
X99790000Y-103253654D02*
X99790000Y-104350000D01*
D57*
X117350000Y-102705990D02*
X116470000Y-103585990D01*
X116470000Y-103585990D02*
X116470000Y-108310000D01*
D51*
X92480000Y-84010000D02*
X91280000Y-85210000D01*
X99100000Y-102563654D02*
X99790000Y-103253654D01*
X95460000Y-93112947D02*
X95460000Y-96185000D01*
X99100000Y-100220000D02*
X99100000Y-102563654D01*
X124225000Y-110425000D02*
X122485000Y-110425000D01*
D57*
X118760000Y-98020000D02*
X119010000Y-97770000D01*
X118510000Y-110900000D02*
X118510000Y-113680000D01*
X117350000Y-99430000D02*
X118760000Y-98020000D01*
X118510000Y-113680000D02*
X118500000Y-113690000D01*
D50*
%TO.N,+3V3*%
X123740000Y-100510000D02*
X124310000Y-101080000D01*
D52*
X108772500Y-102560000D02*
X110750000Y-102560000D01*
X118160000Y-97490456D02*
X118160000Y-95600000D01*
X94445000Y-103240000D02*
X94445000Y-101840000D01*
D51*
X120620000Y-90190000D02*
X120620000Y-91130000D01*
D52*
X96060000Y-104500000D02*
X97450000Y-104500000D01*
D56*
X121050000Y-95720000D02*
X123250000Y-95720000D01*
D52*
X103220000Y-102050000D02*
X101740000Y-102050000D01*
X115730000Y-102440000D02*
X115150000Y-102440000D01*
X116600000Y-101570000D02*
X116600000Y-99050456D01*
X118160000Y-95600000D02*
X119010000Y-94750000D01*
X116600000Y-99050456D02*
X118160000Y-97490456D01*
D50*
X127350000Y-95720000D02*
X127350000Y-99980000D01*
D52*
X116600000Y-101570000D02*
X115730000Y-102440000D01*
X105372500Y-102560000D02*
X107450000Y-102560000D01*
D57*
X121050000Y-95720000D02*
X119980000Y-95720000D01*
D51*
X120620000Y-91130000D02*
X121995000Y-91130000D01*
D52*
X103730000Y-102560000D02*
X103220000Y-102050000D01*
D57*
X127350000Y-95720000D02*
X126120000Y-95720000D01*
D51*
X119830000Y-89400000D02*
X119000000Y-89400000D01*
X127350000Y-95720000D02*
X127350000Y-92980000D01*
D56*
X123250000Y-95720000D02*
X127350000Y-95720000D01*
D50*
X127350000Y-99980000D02*
X126250000Y-101080000D01*
D57*
X119980000Y-95720000D02*
X119010000Y-94750000D01*
D50*
X124310000Y-101080000D02*
X126250000Y-101080000D01*
D51*
X120620000Y-90190000D02*
X119830000Y-89400000D01*
D50*
%TO.N,Net-(U3-EN)*%
X121293750Y-89230000D02*
X120193750Y-88130000D01*
X121920000Y-89230000D02*
X121293750Y-89230000D01*
X120193750Y-88130000D02*
X119000000Y-88130000D01*
X123820000Y-91130000D02*
X121920000Y-89230000D01*
X125387500Y-91130000D02*
X125393750Y-91130000D01*
X125387500Y-91130000D02*
X123820000Y-91130000D01*
X125393750Y-91130000D02*
X127293750Y-89230000D01*
D52*
%TO.N,Net-(C11-Pad1)*%
X99750000Y-81700000D02*
X99750000Y-80220000D01*
X98630000Y-79100000D02*
X99550000Y-80020000D01*
X94650000Y-79100000D02*
X98630000Y-79100000D01*
X93730000Y-80020000D02*
X94650000Y-79100000D01*
%TO.N,Net-(C13-Pad1)*%
X95700000Y-80020000D02*
X97650000Y-80020000D01*
X97850000Y-81700000D02*
X97850000Y-80220000D01*
D51*
%TO.N,USB_VBUS*%
X97030000Y-82860000D02*
X98330000Y-82860000D01*
D52*
X92930000Y-81960000D02*
X92930000Y-81438885D01*
X93498885Y-80870000D02*
X95260000Y-80870000D01*
D50*
X99320000Y-91610000D02*
X99320000Y-91810000D01*
D51*
X94940000Y-84915000D02*
X96360000Y-83495000D01*
X98800000Y-82390000D02*
X98800000Y-81700000D01*
D50*
X97605000Y-87930000D02*
X98800000Y-87930000D01*
D51*
X98330000Y-82860000D02*
X98800000Y-82390000D01*
X94940000Y-85150000D02*
X94940000Y-84915000D01*
D52*
X95260000Y-80870000D02*
X96350000Y-81960000D01*
X92930000Y-81438885D02*
X93498885Y-80870000D01*
D51*
X96360000Y-81770000D02*
X96350000Y-81760000D01*
D50*
X99320000Y-91810000D02*
X98400000Y-92730000D01*
D51*
X96360000Y-83495000D02*
X96360000Y-81770000D01*
X94580000Y-85510000D02*
X94940000Y-85150000D01*
X95880000Y-84010000D02*
X97030000Y-82860000D01*
D54*
X98800000Y-88130000D02*
X99000000Y-88130000D01*
D50*
X98400000Y-92730000D02*
X97605000Y-92730000D01*
D54*
X98800000Y-87930000D02*
X99000000Y-88130000D01*
D52*
%TO.N,AIN1*%
X113645000Y-107610000D02*
X111510000Y-107610000D01*
X102840661Y-89400000D02*
X101500000Y-89400000D01*
X103620661Y-90180000D02*
X102840661Y-89400000D01*
X115572500Y-113405000D02*
X115572500Y-109612500D01*
X111510000Y-107610000D02*
X111350000Y-107770000D01*
D54*
X115572500Y-109612500D02*
X115610000Y-109575000D01*
D52*
X110270000Y-90180000D02*
X103620661Y-90180000D01*
X111350000Y-107770000D02*
X110310000Y-107770000D01*
X115610000Y-109575000D02*
X113645000Y-107610000D01*
%TO.N,AIN2*%
X110310000Y-109570000D02*
X110310000Y-109340000D01*
X110310000Y-109340000D02*
X108740000Y-107770000D01*
X101500000Y-88130000D02*
X109830000Y-88130000D01*
D54*
X110347500Y-109607500D02*
X110310000Y-109570000D01*
D52*
X110347500Y-113400000D02*
X110347500Y-109607500D01*
%TO.N,AIN3*%
X108772500Y-113400000D02*
X108772500Y-109607500D01*
D54*
X108772500Y-109607500D02*
X108810000Y-109570000D01*
D52*
X109010000Y-89270000D02*
X110460000Y-89270000D01*
X114150000Y-77820000D02*
X113610000Y-77280000D01*
X107010000Y-107770000D02*
X108810000Y-109570000D01*
X113610000Y-77280000D02*
X113610000Y-75430000D01*
X114150000Y-85580000D02*
X114150000Y-77820000D01*
X117235000Y-73605000D02*
X117235000Y-72910000D01*
X110460000Y-89270000D02*
X114150000Y-85580000D01*
X106910000Y-107770000D02*
X107010000Y-107770000D01*
X116440000Y-74400000D02*
X117235000Y-73605000D01*
%TO.N,AIN4*%
X103510000Y-107780000D02*
X103510000Y-109570000D01*
D54*
X103510000Y-107830000D02*
X103560000Y-107780000D01*
D52*
X118884669Y-86975331D02*
X119000000Y-86860000D01*
X117555331Y-86975330D02*
X117670661Y-86860000D01*
X103547500Y-113400000D02*
X103547500Y-109607500D01*
D54*
X103440000Y-109500000D02*
X103510000Y-109570000D01*
D52*
X117555331Y-86975331D02*
X117555331Y-86975330D01*
D54*
X103547500Y-109607500D02*
X103440000Y-109500000D01*
D52*
X117595000Y-86975331D02*
X118884669Y-86975331D01*
D54*
X103560000Y-107780000D02*
X103440000Y-107900000D01*
D52*
%TO.N,AIN5*%
X101044975Y-108045025D02*
X101972500Y-108972550D01*
X117595000Y-85875000D02*
X117880000Y-85590000D01*
X117880000Y-85590000D02*
X119000000Y-85590000D01*
X101972500Y-108972550D02*
X101972500Y-113400000D01*
D54*
%TO.N,AIN6*%
X115575000Y-96907500D02*
X115612500Y-96870000D01*
D52*
X116710000Y-93505762D02*
X116710000Y-85517106D01*
X115612500Y-96870000D02*
X116260000Y-96222500D01*
X115575000Y-100695000D02*
X115575000Y-96907500D01*
X116260000Y-93955762D02*
X116710000Y-93505762D01*
X116260000Y-96222500D02*
X116260000Y-93955762D01*
X117907106Y-84320000D02*
X119000000Y-84320000D01*
X116710000Y-85517106D02*
X117907106Y-84320000D01*
%TO.N,AIN7*%
X110310000Y-96484365D02*
X110310000Y-96320000D01*
X116210000Y-85310000D02*
X118470000Y-83050000D01*
D54*
X110310000Y-96870000D02*
X110310000Y-96484365D01*
D52*
X118470000Y-83050000D02*
X119000000Y-83050000D01*
D54*
X110347500Y-96907500D02*
X110310000Y-96870000D01*
D52*
X111967107Y-95570000D02*
X112910000Y-94627107D01*
X112910000Y-94627107D02*
X112910000Y-92637106D01*
X113410000Y-92137106D02*
X113410000Y-91524212D01*
X116210000Y-88724212D02*
X116210000Y-85310000D01*
X111060000Y-95570000D02*
X111967107Y-95570000D01*
X113410000Y-91524212D02*
X116210000Y-88724212D01*
X110310000Y-96320000D02*
X111060000Y-95570000D01*
X112910000Y-92637106D02*
X113410000Y-92137106D01*
X110347500Y-100700000D02*
X110347500Y-96907500D01*
%TO.N,AIN8*%
X117680000Y-83132893D02*
X115710000Y-85102893D01*
X112910000Y-91930000D02*
X112410000Y-92430000D01*
X112910000Y-91317106D02*
X112910000Y-91930000D01*
X117680000Y-77490000D02*
X117680000Y-83132893D01*
X108810000Y-96789544D02*
X108810000Y-96870000D01*
X110529544Y-95070000D02*
X108810000Y-96789544D01*
X119000000Y-76700000D02*
X118470000Y-76700000D01*
X108772500Y-100700000D02*
X108772500Y-96907500D01*
X112410000Y-92430000D02*
X112410000Y-94420000D01*
X118470000Y-76700000D02*
X117680000Y-77490000D01*
X112410000Y-94420000D02*
X111760000Y-95070000D01*
D54*
X108772500Y-96907500D02*
X108810000Y-96870000D01*
D52*
X115710000Y-85102893D02*
X115710000Y-88517106D01*
X115710000Y-88517106D02*
X112910000Y-91317106D01*
X111760000Y-95070000D02*
X110529544Y-95070000D01*
%TO.N,AIN9*%
X115210000Y-88310000D02*
X115210000Y-74055000D01*
D54*
X103547500Y-96907500D02*
X103510000Y-96870000D01*
D52*
X103510000Y-96484365D02*
X104364365Y-95630000D01*
X104364365Y-95630000D02*
X105570000Y-95630000D01*
D54*
X103510000Y-96870000D02*
X103510000Y-96484365D01*
D52*
X114695000Y-73540000D02*
X114695000Y-72910000D01*
X105570000Y-95630000D02*
X106110000Y-95090000D01*
X106110000Y-92460000D02*
X107140000Y-91430000D01*
X107140000Y-91430000D02*
X112090000Y-91430000D01*
X115210000Y-74055000D02*
X114695000Y-73540000D01*
X103547500Y-100700000D02*
X103547500Y-96907500D01*
X106110000Y-95090000D02*
X106110000Y-92460000D01*
X112090000Y-91430000D02*
X115210000Y-88310000D01*
%TO.N,AIN10*%
X105600000Y-93203654D02*
X105600000Y-92180000D01*
X113425000Y-73540000D02*
X113425000Y-72910000D01*
X103025000Y-95130000D02*
X105362894Y-95130000D01*
X102010000Y-96870000D02*
X102010000Y-96145000D01*
X105362894Y-95130000D02*
X105610000Y-94882894D01*
X101972500Y-100700000D02*
X101972500Y-96907500D01*
X105610000Y-94882894D02*
X105610000Y-93213654D01*
X111880000Y-90930000D02*
X114710000Y-88100000D01*
X114710000Y-74825000D02*
X113425000Y-73540000D01*
X114710000Y-88100000D02*
X114710000Y-74825000D01*
X106850000Y-90930000D02*
X111880000Y-90930000D01*
X105610000Y-93213654D02*
X105600000Y-93203654D01*
D54*
X101972500Y-96907500D02*
X102010000Y-96870000D01*
D52*
X102010000Y-96145000D02*
X103025000Y-95130000D01*
X105600000Y-92180000D02*
X106850000Y-90930000D01*
%TO.N,CAN1_L*%
X98070456Y-103540000D02*
X96160000Y-103540000D01*
X98670000Y-111520000D02*
X97820000Y-110670000D01*
X98670000Y-111880000D02*
X98670000Y-111520000D01*
X98680000Y-112150000D02*
X98680000Y-111900000D01*
X97750000Y-110600000D02*
X97750000Y-107680456D01*
X94650000Y-104500000D02*
X93287500Y-104500000D01*
X97352857Y-110202857D02*
X96382500Y-110202857D01*
X95715000Y-103095000D02*
X95715000Y-103435000D01*
X100250000Y-122754500D02*
X98680000Y-121184500D01*
X98680000Y-104149544D02*
X98070456Y-103540000D01*
X98680000Y-106750456D02*
X98680000Y-104149544D01*
X98680000Y-111890000D02*
X98670000Y-111880000D01*
X97750000Y-107680456D02*
X98680000Y-106750456D01*
X98680000Y-111530000D02*
X98670000Y-111520000D01*
X96160000Y-103540000D02*
X95715000Y-103095000D01*
X98680000Y-112150000D02*
X98680000Y-111530000D01*
X97820000Y-110670000D02*
X97352857Y-110202857D01*
X97820000Y-110670000D02*
X97750000Y-110600000D01*
X95715000Y-103095000D02*
X95715000Y-101840000D01*
X95715000Y-103435000D02*
X94650000Y-104500000D01*
X98680000Y-121184500D02*
X98680000Y-112150000D01*
%TO.N,INPUT7*%
X111410000Y-101462500D02*
X112172500Y-100700000D01*
X111410000Y-103700000D02*
X111410000Y-101462500D01*
X111260000Y-103850000D02*
X111410000Y-103700000D01*
%TO.N,INPUT5*%
X104000000Y-119236733D02*
X101303267Y-116540000D01*
X104000000Y-121504500D02*
X104000000Y-119236733D01*
X101060000Y-116540000D02*
X101060000Y-114312500D01*
X104000000Y-121504500D02*
X102750000Y-122754500D01*
X101303267Y-116540000D02*
X101060000Y-116540000D01*
X101060000Y-114312500D02*
X100147500Y-113400000D01*
%TO.N,INPUT6*%
X113750000Y-100695000D02*
X113940000Y-100885000D01*
X113940000Y-100885000D02*
X113940000Y-103130000D01*
X113940000Y-103130000D02*
X114660000Y-103850000D01*
%TO.N,INPUT2*%
X111210000Y-116590000D02*
X111160000Y-116640000D01*
X111260000Y-114312500D02*
X112172500Y-113400000D01*
X111500000Y-121504500D02*
X110250000Y-122754500D01*
D54*
X111260000Y-116540000D02*
X111210000Y-116590000D01*
D52*
X111500000Y-121504500D02*
X111500000Y-116780000D01*
X111260000Y-116540000D02*
X111260000Y-114312500D01*
X111500000Y-116780000D02*
X111260000Y-116540000D01*
%TO.N,INPUT9*%
X104460000Y-101612500D02*
X105372500Y-100700000D01*
X104460000Y-103850000D02*
X104460000Y-101612500D01*
%TO.N,INPUT4*%
X104460000Y-116540000D02*
X104460000Y-114312500D01*
X104460000Y-114312500D02*
X105372500Y-113400000D01*
X106500000Y-118580000D02*
X104460000Y-116540000D01*
X106500000Y-121504500D02*
X106500000Y-118580000D01*
X106500000Y-121504500D02*
X105250000Y-122754500D01*
%TO.N,INPUT10*%
X101060000Y-101612500D02*
X100147500Y-100700000D01*
X101060000Y-103850000D02*
X101060000Y-101612500D01*
%TO.N,INPUT8*%
X108120000Y-103590000D02*
X108120000Y-101872500D01*
X108120000Y-101872500D02*
X106947500Y-100700000D01*
X107860000Y-103850000D02*
X108120000Y-103590000D01*
%TO.N,INPUT1*%
X112750000Y-122754500D02*
X114000000Y-121504500D01*
X114660000Y-116540000D02*
X114660000Y-114317500D01*
X114660000Y-114317500D02*
X113747500Y-113405000D01*
X114000000Y-117200000D02*
X114660000Y-116540000D01*
X114000000Y-121504500D02*
X114000000Y-117200000D01*
%TO.N,INPUT3*%
X107860000Y-116540000D02*
X107860000Y-114312500D01*
X108999999Y-117679999D02*
X107860000Y-116540000D01*
X108999999Y-121504501D02*
X107750000Y-122754500D01*
X107860000Y-114312500D02*
X106947500Y-113400000D01*
X108999999Y-121504501D02*
X108999999Y-117679999D01*
%TO.N,CAN1_H*%
X95000000Y-108000000D02*
X93590357Y-108000000D01*
X98277563Y-103040000D02*
X97090000Y-103040000D01*
X100250000Y-119754500D02*
X99180000Y-118684500D01*
X96985000Y-102935000D02*
X96985000Y-101840000D01*
X98610000Y-108000000D02*
X99180000Y-108570000D01*
X97090000Y-103040000D02*
X96985000Y-102935000D01*
X93500000Y-108090357D02*
X93500000Y-106400000D01*
X98510000Y-108000000D02*
X98610000Y-108000000D01*
X99180000Y-108570000D02*
X99180000Y-103942437D01*
X93590357Y-108000000D02*
X93500000Y-108090357D01*
X99180000Y-103942437D02*
X98277563Y-103040000D01*
X99180000Y-118684500D02*
X99180000Y-108570000D01*
%TO.N,Net-(CONN2-CC1)*%
X94460000Y-98999647D02*
X93602147Y-98999647D01*
X97605000Y-89080000D02*
X98640000Y-89080000D01*
X98640000Y-89080000D02*
X98970000Y-89410000D01*
X93602147Y-98999647D02*
X92882500Y-98280000D01*
%TO.N,Net-(CONN2-CC2)*%
X96370000Y-92080000D02*
X97605000Y-92080000D01*
X94462500Y-94800000D02*
X92882500Y-96380000D01*
X94550000Y-94800000D02*
X94462500Y-94800000D01*
X94460000Y-94800000D02*
X94550000Y-94800000D01*
X96350000Y-92100000D02*
X96370000Y-92080000D01*
%TO.N,CAN1_TX*%
X98255000Y-96440000D02*
X98255000Y-98000000D01*
X108980871Y-77775000D02*
X108980871Y-76424129D01*
X110885000Y-74520000D02*
X110885000Y-72910000D01*
X108980871Y-76424129D02*
X110885000Y-74520000D01*
%TO.N,CAN1_RX*%
X109291532Y-78525000D02*
X109730871Y-78085661D01*
X109730871Y-78085661D02*
X109730871Y-76469129D01*
D54*
X94460000Y-96455000D02*
X94445000Y-96440000D01*
D52*
X109730871Y-76469129D02*
X112155000Y-74045000D01*
X112155000Y-74045000D02*
X112155000Y-72910000D01*
X94460000Y-98000000D02*
X94460000Y-96455000D01*
X108200000Y-78525000D02*
X109291532Y-78525000D01*
%TO.N,Net-(JP2-B)*%
X95612500Y-108902857D02*
X96382500Y-108902857D01*
X93500000Y-111015357D02*
X95612500Y-108902857D01*
D51*
%TO.N,Net-(LED1-K)*%
X124425000Y-114300000D02*
X124425000Y-112500000D01*
D50*
%TO.N,Net-(LED2-K)*%
X120350000Y-100510000D02*
X121865000Y-100510000D01*
%TO.N,Net-(U1-BOOT)*%
X127687500Y-105737500D02*
X127687500Y-107000000D01*
D54*
X127837500Y-106850000D02*
X127687500Y-107000000D01*
D50*
%TO.N,Net-(U1-FB)*%
X123737500Y-104300000D02*
X123987500Y-104550000D01*
X127000000Y-109630000D02*
X127000000Y-109587500D01*
X127000000Y-109587500D02*
X127687500Y-108900000D01*
X123737500Y-102407500D02*
X123740000Y-102405000D01*
X122910000Y-105380000D02*
X123737500Y-104552500D01*
X123737500Y-104300000D02*
X123737500Y-102407500D01*
X123737500Y-104552500D02*
X123737500Y-104300000D01*
%TO.N,Net-(R6-Pad1)*%
X121293750Y-79380000D02*
X121293750Y-77836250D01*
X126200000Y-79380000D02*
X127293750Y-79380000D01*
X121293750Y-77836250D02*
X121440000Y-77690000D01*
X122380000Y-79380000D02*
X121293750Y-79380000D01*
D52*
%TO.N,Net-(U3-IO38)*%
X91105000Y-81960000D02*
X91105000Y-83220000D01*
X91105000Y-81960000D02*
X91105000Y-80705000D01*
X91105000Y-80705000D02*
X91790000Y-80020000D01*
X101500000Y-79240000D02*
X102820000Y-79240000D01*
%TO.N,Net-(U3-USB_D+)*%
X99588504Y-78156496D02*
X99550000Y-78195000D01*
X117575000Y-74400000D02*
X118760000Y-74400000D01*
X99588504Y-76125000D02*
X99588504Y-78156496D01*
%TO.N,Net-(U3-USB_D-)*%
X117575000Y-75430000D02*
X119000000Y-75430000D01*
X97650000Y-78025000D02*
X97650000Y-78195000D01*
X98800000Y-76875000D02*
X97650000Y-78025000D01*
D50*
%TO.N,Net-(U3-IO0)*%
X111120000Y-79400000D02*
X105950000Y-79400000D01*
X102490000Y-74420000D02*
X101760000Y-74420000D01*
X105950000Y-79400000D02*
X102650000Y-76100000D01*
X122380000Y-83130000D02*
X121293750Y-83130000D01*
X111140000Y-79380000D02*
X111120000Y-79400000D01*
X125040000Y-83130000D02*
X127293750Y-83130000D01*
X102650000Y-74580000D02*
X102490000Y-74420000D01*
X102650000Y-76100000D02*
X102650000Y-74580000D01*
D51*
%TO.N,+5VP*%
X116760000Y-116640000D02*
X116700000Y-116700000D01*
X116700000Y-116640000D02*
X118500000Y-116640000D01*
X111260000Y-93690000D02*
X107860000Y-93690000D01*
X114660000Y-106380000D02*
X101060000Y-106380000D01*
X104460000Y-93690000D02*
X101060000Y-93690000D01*
D52*
%TO.N,Net-(CONN2-D+-PadA6)*%
X100050000Y-85800000D02*
X100050000Y-86000000D01*
X100050000Y-86800000D02*
X100050000Y-87000000D01*
X99450000Y-85300000D02*
X99450000Y-85500000D01*
X99450000Y-86300000D02*
X99450000Y-86500000D01*
X99750000Y-87500000D02*
X99750000Y-87974128D01*
X99900000Y-86150000D02*
X99750000Y-86150000D01*
X99750000Y-87300000D02*
X99750000Y-87500000D01*
X98520000Y-91080000D02*
X99520000Y-90080000D01*
X98520000Y-91080000D02*
X97605000Y-91080000D01*
X99750000Y-86150000D02*
X99600000Y-86150000D01*
X99750000Y-89850000D02*
X99520000Y-90080000D01*
X99600000Y-86650000D02*
X99750000Y-86650000D01*
X99750000Y-83975000D02*
X99750000Y-85000000D01*
X99750000Y-87974128D02*
X99750000Y-89850000D01*
X99600000Y-85650000D02*
X99750000Y-85650000D01*
X99750000Y-85650000D02*
X99900000Y-85650000D01*
X99750000Y-86650000D02*
X99900000Y-86650000D01*
X99520000Y-90080000D02*
X97605000Y-90080000D01*
X100050000Y-87000000D02*
G75*
G02*
X99900000Y-87150000I-150000J0D01*
G01*
X99900000Y-86650000D02*
G75*
G02*
X100050000Y-86800000I0J-150000D01*
G01*
X99900000Y-87150000D02*
G75*
G03*
X99750000Y-87300000I0J-150000D01*
G01*
X99600000Y-86150000D02*
G75*
G03*
X99450000Y-86300000I0J-150000D01*
G01*
X99900000Y-85650000D02*
G75*
G02*
X100050000Y-85800000I0J-150000D01*
G01*
X99750000Y-85000000D02*
G75*
G02*
X99600000Y-85150000I-150000J0D01*
G01*
X99450000Y-86500000D02*
G75*
G03*
X99600000Y-86650000I150000J0D01*
G01*
X99600000Y-85150000D02*
G75*
G03*
X99450000Y-85300000I0J-150000D01*
G01*
X100050000Y-86000000D02*
G75*
G02*
X99900000Y-86150000I-150000J0D01*
G01*
X99450000Y-85500000D02*
G75*
G03*
X99600000Y-85650000I150000J0D01*
G01*
%TO.N,Net-(CONN2-D--PadA7)*%
X95460000Y-85590000D02*
X95659656Y-85390344D01*
X95460000Y-86210000D02*
X95460000Y-85590000D01*
X95280435Y-87010000D02*
X95460000Y-87010000D01*
X95460000Y-88160000D02*
X95460000Y-88260000D01*
X95100870Y-87330435D02*
X95100870Y-87189565D01*
X96680000Y-90580000D02*
X96470000Y-90370000D01*
X96100000Y-84950000D02*
X96875000Y-84950000D01*
X95760000Y-87860000D02*
X95760000Y-87660000D01*
X95460000Y-87510000D02*
X95280435Y-87510000D01*
X96780000Y-89580000D02*
X97605000Y-89580000D01*
X95812684Y-86833658D02*
X95812684Y-86686342D01*
X95460000Y-87010000D02*
X95636342Y-87010000D01*
X95460000Y-86333658D02*
X95460000Y-86210000D01*
X95610000Y-87510000D02*
X95460000Y-87510000D01*
X96470000Y-89270000D02*
X96780000Y-89580000D01*
X97605000Y-90580000D02*
X96680000Y-90580000D01*
X96470000Y-90370000D02*
X96470000Y-89270000D01*
X95659656Y-85390344D02*
X96100000Y-84950000D01*
X96875000Y-84950000D02*
X97850000Y-83975000D01*
X95460000Y-88260000D02*
X96470000Y-89270000D01*
X95460000Y-88160000D02*
G75*
G02*
X95610000Y-88010000I150000J0D01*
G01*
X95636342Y-87010000D02*
G75*
G03*
X95812600Y-86833658I-42J176300D01*
G01*
X95812684Y-86686342D02*
G75*
G03*
X95636342Y-86509916I-176384J42D01*
G01*
X95636342Y-86510000D02*
G75*
G02*
X95460000Y-86333658I-42J176300D01*
G01*
X95280435Y-87510000D02*
G75*
G02*
X95100800Y-87330435I-35J179600D01*
G01*
X95100870Y-87189565D02*
G75*
G02*
X95280435Y-87010070I179530J-35D01*
G01*
X95760000Y-87660000D02*
G75*
G03*
X95610000Y-87510000I-150000J0D01*
G01*
X95610000Y-88010000D02*
G75*
G03*
X95760000Y-87860000I0J150000D01*
G01*
%TD*%
%TA.AperFunction,Conductor*%
%TO.N,+5VP*%
G36*
X118888059Y-116131061D02*
G01*
X118993223Y-116144906D01*
X119024491Y-116153284D01*
X119114918Y-116190740D01*
X119142952Y-116206925D01*
X119220602Y-116266509D01*
X119243491Y-116289398D01*
X119303074Y-116367048D01*
X119319259Y-116395081D01*
X119356715Y-116485508D01*
X119365093Y-116516775D01*
X119375656Y-116597005D01*
X119378336Y-116617364D01*
X119378939Y-116621939D01*
X119380000Y-116638125D01*
X119380000Y-117136597D01*
X119379707Y-117145111D01*
X119375872Y-117200833D01*
X119373540Y-117217699D01*
X119362106Y-117272379D01*
X119360077Y-117280652D01*
X118515188Y-120276959D01*
X118509826Y-120292129D01*
X118468392Y-120388862D01*
X118452031Y-120416496D01*
X118392156Y-120492947D01*
X118369249Y-120515453D01*
X118291755Y-120573960D01*
X118263837Y-120589827D01*
X118173915Y-120626474D01*
X118142856Y-120634641D01*
X118102494Y-120639806D01*
X118038468Y-120647998D01*
X118022429Y-120649000D01*
X117294368Y-120647124D01*
X114989368Y-120641183D01*
X114971257Y-120639806D01*
X114853898Y-120622166D01*
X114819238Y-120611603D01*
X114720305Y-120564731D01*
X114690183Y-120544603D01*
X114609021Y-120471135D01*
X114586004Y-120443161D01*
X114529543Y-120349367D01*
X114515594Y-120315935D01*
X114486388Y-120200895D01*
X114483222Y-120183016D01*
X114431391Y-119676670D01*
X114430814Y-119659945D01*
X114434430Y-119550588D01*
X114440018Y-119517665D01*
X114470158Y-119421318D01*
X114484326Y-119391084D01*
X114539089Y-119306263D01*
X114560804Y-119280915D01*
X114642548Y-119208147D01*
X114655749Y-119197906D01*
X115349325Y-118731200D01*
X117391593Y-117356966D01*
X117391592Y-117356966D01*
X117391596Y-117356964D01*
X117391598Y-117356962D01*
X117610000Y-117210000D01*
X117615338Y-116633441D01*
X117616536Y-116617364D01*
X117631187Y-116512939D01*
X117639755Y-116481921D01*
X117677616Y-116392282D01*
X117693878Y-116364513D01*
X117713072Y-116339775D01*
X117753532Y-116287632D01*
X117776392Y-116264984D01*
X117853817Y-116206047D01*
X117881732Y-116190044D01*
X117971723Y-116153012D01*
X118002815Y-116144732D01*
X118107384Y-116131048D01*
X118123474Y-116130000D01*
X118871874Y-116130000D01*
X118888059Y-116131061D01*
G37*
%TD.AperFunction*%
%TD*%
D58*
X106890000Y-94870000D03*
X126560000Y-106370000D03*
X91932500Y-101620000D03*
X127850000Y-116170000D03*
X124350000Y-85480000D03*
X119240000Y-93220000D03*
X121380000Y-114600000D03*
X120690000Y-103850000D03*
X114159032Y-92175205D03*
X113600000Y-95250000D03*
X103050000Y-90670000D03*
X99930000Y-108400000D03*
X112172500Y-108360000D03*
X105410000Y-108100000D03*
X98800000Y-87130000D03*
X98950000Y-98800000D03*
X95562500Y-106550000D03*
X91790000Y-76680000D03*
X111380000Y-92180000D03*
X98950000Y-100070000D03*
X95715000Y-98000000D03*
D59*
X103730000Y-102560000D03*
X101740000Y-102050000D03*
D58*
X120620000Y-91130000D03*
X94445000Y-103240000D03*
X96060000Y-104500000D03*
X127350000Y-92980000D03*
D59*
X110750000Y-102560000D03*
X107450000Y-102560000D03*
X115150000Y-102440000D03*
X108772500Y-102560000D03*
X105372500Y-102560000D03*
D58*
X99000000Y-88130000D03*
X94580000Y-85510000D03*
X99320000Y-91610000D03*
X110270000Y-90180000D03*
X110310000Y-107770000D03*
X108810000Y-107770000D03*
X109830000Y-88130000D03*
X116440000Y-74400000D03*
X106910000Y-107770000D03*
X109010000Y-89270000D03*
X113610000Y-75430000D03*
X103510000Y-107770000D03*
X117595000Y-86975331D03*
X117595000Y-85875000D03*
X101060000Y-108045025D03*
X98510000Y-108000000D03*
X95000000Y-108000000D03*
X94460000Y-98999647D03*
X98980000Y-89160000D03*
X94550000Y-94800000D03*
X96350000Y-92100000D03*
X98255000Y-98000000D03*
X108980871Y-77775000D03*
X94460000Y-98000000D03*
X108200000Y-78525000D03*
D59*
X127000000Y-109630000D03*
X122910000Y-105380000D03*
D58*
X126200000Y-79380000D03*
X122380000Y-79380000D03*
D59*
X91105000Y-83220000D03*
X102820000Y-79240000D03*
D58*
X99588504Y-76125000D03*
X117575000Y-74400000D03*
X98800000Y-76875000D03*
X117575000Y-75430000D03*
X122380000Y-83130000D03*
X125040000Y-83130000D03*
X111140000Y-79380000D03*
X116700000Y-116640000D03*
X125750000Y-74600000D03*
X94750000Y-74600000D03*
X120250000Y-119754500D03*
X117750000Y-119754500D03*
X115250000Y-119754500D03*
X112750000Y-119754500D03*
X110250000Y-119754500D03*
X107750000Y-119754500D03*
X105250000Y-119754500D03*
X102750000Y-119754500D03*
X100250000Y-119754500D03*
X120250000Y-122754500D03*
X117750000Y-122754500D03*
X115250000Y-122754500D03*
X112750000Y-122754500D03*
X110250000Y-122754500D03*
X107750000Y-122754500D03*
X105250000Y-122754500D03*
X102750000Y-122754500D03*
X100250000Y-122754500D03*
X94750000Y-124254500D03*
X125750000Y-124254500D03*
X94750000Y-115450000D03*
D59*
X113150000Y-83650000D03*
X113150000Y-82250000D03*
X112450000Y-84350000D03*
X112450000Y-82950000D03*
X112450000Y-81550000D03*
X111750000Y-83650000D03*
X111750000Y-82250000D03*
X111050000Y-84350000D03*
X111050000Y-82950000D03*
X111050000Y-81550000D03*
X110350000Y-83650000D03*
X110350000Y-82250000D03*
D58*
X96530000Y-87440000D03*
X96530000Y-93220000D03*
D60*
X92880000Y-86010000D03*
X92880000Y-94650000D03*
D61*
X97030000Y-86010000D03*
X97030000Y-94650000D03*
D58*
X111260000Y-106380000D03*
X111260000Y-116540000D03*
X101060000Y-106380000D03*
X101060000Y-116540000D03*
X107860000Y-93690000D03*
X107860000Y-103850000D03*
X114660000Y-93690000D03*
X114660000Y-103850000D03*
X104460000Y-106380000D03*
X104460000Y-116540000D03*
X101060000Y-93690000D03*
X101060000Y-103850000D03*
X114660000Y-106380000D03*
X114660000Y-116540000D03*
X107860000Y-106380000D03*
X107860000Y-116540000D03*
X104460000Y-93690000D03*
X104460000Y-103850000D03*
X111260000Y-93690000D03*
X111260000Y-103850000D03*
M02*
