%TF.GenerationSoftware,KiCad,Pcbnew,8.0.8*%
%TF.CreationDate,2025-05-08T14:25:14+01:00*%
%TF.ProjectId,esp32-canboard,65737033-322d-4636-916e-626f6172642e,rev?*%
%TF.SameCoordinates,Original*%
%TF.FileFunction,Soldermask,Bot*%
%TF.FilePolarity,Negative*%
%FSLAX46Y46*%
G04 Gerber Fmt 4.6, Leading zero omitted, Abs format (unit mm)*
G04 Created by KiCad (PCBNEW 8.0.8) date 2025-05-08 14:25:14*
%MOMM*%
%LPD*%
G01*
G04 APERTURE LIST*
%ADD10C,5.250000*%
%ADD11C,1.800000*%
%ADD12C,4.800000*%
%ADD13C,0.700000*%
%ADD14O,2.054000X1.254000*%
%ADD15O,2.354000X1.254000*%
%ADD16C,1.600000*%
%ADD17O,1.600000X1.600000*%
G04 APERTURE END LIST*
D10*
%TO.C,MH2*%
X125750000Y-74600000D03*
%TD*%
%TO.C,MH3*%
X94750000Y-74600000D03*
%TD*%
D11*
%TO.C,CONN1*%
X120250000Y-119754500D03*
X117750000Y-119754500D03*
X115250000Y-119754500D03*
X112750000Y-119754500D03*
X110250000Y-119754500D03*
X107750000Y-119754500D03*
X105250000Y-119754500D03*
X102750000Y-119754500D03*
X100250000Y-119754500D03*
X120250000Y-122754500D03*
X117750000Y-122754500D03*
X115250000Y-122754500D03*
X112750000Y-122754500D03*
X110250000Y-122754500D03*
X107750000Y-122754500D03*
X105250000Y-122754500D03*
X102750000Y-122754500D03*
X100250000Y-122754500D03*
D12*
X94750000Y-124254500D03*
X125750000Y-124254500D03*
%TD*%
D10*
%TO.C,MH1*%
X94750000Y-115450000D03*
%TD*%
D13*
%TO.C,CONN2*%
X96530000Y-87440000D03*
X96530000Y-93220000D03*
D14*
X92880000Y-86010000D03*
X92880000Y-94650000D03*
D15*
X97030000Y-86010000D03*
X97030000Y-94650000D03*
%TD*%
D16*
%TO.C,R18*%
X111260000Y-106380000D03*
D17*
X111260000Y-116540000D03*
%TD*%
D16*
%TO.C,R27*%
X101060000Y-106380000D03*
D17*
X101060000Y-116540000D03*
%TD*%
D16*
%TO.C,R32*%
X107860000Y-93690000D03*
D17*
X107860000Y-103850000D03*
%TD*%
D16*
%TO.C,R30*%
X114660000Y-93690000D03*
D17*
X114660000Y-103850000D03*
%TD*%
D16*
%TO.C,R24*%
X104460000Y-106380000D03*
D17*
X104460000Y-116540000D03*
%TD*%
D16*
%TO.C,R34*%
X101060000Y-93690000D03*
D17*
X101060000Y-103850000D03*
%TD*%
D16*
%TO.C,R17*%
X114660000Y-106380000D03*
D17*
X114660000Y-116540000D03*
%TD*%
D16*
%TO.C,R21*%
X107860000Y-106380000D03*
D17*
X107860000Y-116540000D03*
%TD*%
D16*
%TO.C,R33*%
X104460000Y-93690000D03*
D17*
X104460000Y-103850000D03*
%TD*%
D16*
%TO.C,R31*%
X111260000Y-93690000D03*
D17*
X111260000Y-103850000D03*
%TD*%
M02*
