%TF.GenerationSoftware,KiCad,Pcbnew,8.0.8*%
%TF.CreationDate,2025-05-08T14:25:14+01:00*%
%TF.ProjectId,esp32-canboard,65737033-322d-4636-916e-626f6172642e,rev?*%
%TF.SameCoordinates,Original*%
%TF.FileFunction,Profile,NP*%
%FSLAX46Y46*%
G04 Gerber Fmt 4.6, Leading zero omitted, Abs format (unit mm)*
G04 Created by KiCad (PCBNEW 8.0.8) date 2025-05-08 14:25:14*
%MOMM*%
%LPD*%
G01*
G04 APERTURE LIST*
%TA.AperFunction,Profile*%
%ADD10C,0.050000*%
%TD*%
%ADD11C,0.350000*%
%ADD12C,0.300000*%
%ADD13O,1.450000X0.650000*%
%ADD14O,1.750000X0.650000*%
G04 APERTURE END LIST*
D10*
X90000000Y-73000000D02*
X90000000Y-125500000D01*
X127500000Y-70000000D02*
X93000000Y-70000000D01*
X130500000Y-125500000D02*
X130500000Y-73000000D01*
X93000000Y-128500000D02*
G75*
G02*
X90000000Y-125500000I0J3000000D01*
G01*
X130500000Y-125500000D02*
G75*
G02*
X127500000Y-128500000I-3000000J0D01*
G01*
X93000000Y-128500000D02*
X127500000Y-128500000D01*
X127500000Y-70000000D02*
G75*
G02*
X130500000Y-73000000I0J-3000000D01*
G01*
X90000000Y-73000000D02*
G75*
G02*
X93000000Y-70000000I3000000J0D01*
G01*
D11*
X125750000Y-74600000D03*
X94750000Y-74600000D03*
X120250000Y-119754500D03*
X117750000Y-119754500D03*
X115250000Y-119754500D03*
X112750000Y-119754500D03*
X110250000Y-119754500D03*
X107750000Y-119754500D03*
X105250000Y-119754500D03*
X102750000Y-119754500D03*
X100250000Y-119754500D03*
X120250000Y-122754500D03*
X117750000Y-122754500D03*
X115250000Y-122754500D03*
X112750000Y-122754500D03*
X110250000Y-122754500D03*
X107750000Y-122754500D03*
X105250000Y-122754500D03*
X102750000Y-122754500D03*
X100250000Y-122754500D03*
X94750000Y-124254500D03*
X125750000Y-124254500D03*
X94750000Y-115450000D03*
D12*
X113150000Y-83650000D03*
X113150000Y-82250000D03*
X112450000Y-84350000D03*
X112450000Y-82950000D03*
X112450000Y-81550000D03*
X111750000Y-83650000D03*
X111750000Y-82250000D03*
X111050000Y-84350000D03*
X111050000Y-82950000D03*
X111050000Y-81550000D03*
X110350000Y-83650000D03*
X110350000Y-82250000D03*
D11*
X96530000Y-87440000D03*
X96530000Y-93220000D03*
D13*
X92880000Y-86010000D03*
X92880000Y-94650000D03*
D14*
X97030000Y-86010000D03*
X97030000Y-94650000D03*
D11*
X111260000Y-106380000D03*
X111260000Y-116540000D03*
X101060000Y-106380000D03*
X101060000Y-116540000D03*
X107860000Y-93690000D03*
X107860000Y-103850000D03*
X114660000Y-93690000D03*
X114660000Y-103850000D03*
X104460000Y-106380000D03*
X104460000Y-116540000D03*
X101060000Y-93690000D03*
X101060000Y-103850000D03*
X114660000Y-106380000D03*
X114660000Y-116540000D03*
X107860000Y-106380000D03*
X107860000Y-116540000D03*
X104460000Y-93690000D03*
X104460000Y-103850000D03*
X111260000Y-93690000D03*
X111260000Y-103850000D03*
M02*
