%TF.GenerationSoftware,KiCad,Pcbnew,8.0.8*%
%TF.CreationDate,2025-05-08T14:25:14+01:00*%
%TF.ProjectId,esp32-canboard,65737033-322d-4636-916e-626f6172642e,rev?*%
%TF.SameCoordinates,Original*%
%TF.FileFunction,Legend,Bot*%
%TF.FilePolarity,Positive*%
%FSLAX46Y46*%
G04 Gerber Fmt 4.6, Leading zero omitted, Abs format (unit mm)*
G04 Created by KiCad (PCBNEW 8.0.8) date 2025-05-08 14:25:14*
%MOMM*%
%LPD*%
G01*
G04 APERTURE LIST*
%ADD10C,0.100000*%
%ADD11C,0.200000*%
%ADD12C,0.300000*%
%ADD13C,0.250000*%
%ADD14C,0.000000*%
%ADD15C,0.120000*%
%ADD16C,0.350000*%
%ADD17C,0.300000*%
%ADD18O,1.450000X0.650000*%
%ADD19O,1.750000X0.650000*%
G04 APERTURE END LIST*
D10*
X99250000Y-92340000D02*
X100350000Y-92340000D01*
X100750000Y-92340000D02*
X101850000Y-92340000D01*
X102250000Y-92340000D02*
X103350000Y-92340000D01*
X103750000Y-92340000D02*
X104850000Y-92340000D01*
X105250000Y-92340000D02*
X106350000Y-92340000D01*
X106750000Y-92340000D02*
X107850000Y-92340000D01*
X108250000Y-92340000D02*
X109350000Y-92340000D01*
X109750000Y-92340000D02*
X110850000Y-92340000D01*
X111250000Y-92340000D02*
X112350000Y-92340000D01*
X112750000Y-92340000D02*
X113850000Y-92340000D01*
X114250000Y-92340000D02*
X115350000Y-92340000D01*
X115750000Y-92340000D02*
X116430000Y-92340000D01*
X116430000Y-92340000D02*
X116430000Y-93440000D01*
X116430000Y-93840000D02*
X116430000Y-94940000D01*
X116430000Y-95340000D02*
X116430000Y-96440000D01*
X116430000Y-96840000D02*
X116430000Y-97940000D01*
X116430000Y-98340000D02*
X116430000Y-99440000D01*
X116430000Y-99840000D02*
X116430000Y-100940000D01*
X116430000Y-101340000D02*
X116430000Y-102440000D01*
X116430000Y-102840000D02*
X116430000Y-103940000D01*
X116430000Y-104340000D02*
X116430000Y-105440000D01*
X116430000Y-105840000D02*
X116430000Y-106940000D01*
X116430000Y-107340000D02*
X116430000Y-108440000D01*
X116430000Y-108840000D02*
X116430000Y-109940000D01*
X116430000Y-110340000D02*
X116430000Y-111440000D01*
X116430000Y-111840000D02*
X116430000Y-112940000D01*
X116430000Y-113340000D02*
X116430000Y-114440000D01*
X116430000Y-114840000D02*
X116430000Y-115940000D01*
X116430000Y-116340000D02*
X116430000Y-117440000D01*
X116430000Y-117840000D02*
X116430000Y-117890000D01*
X116430000Y-117890000D02*
X115330000Y-117890000D01*
X114930000Y-117890000D02*
X113830000Y-117890000D01*
X113430000Y-117890000D02*
X112330000Y-117890000D01*
X111930000Y-117890000D02*
X110830000Y-117890000D01*
X110430000Y-117890000D02*
X109330000Y-117890000D01*
X108930000Y-117890000D02*
X107830000Y-117890000D01*
X107430000Y-117890000D02*
X106330000Y-117890000D01*
X105930000Y-117890000D02*
X104830000Y-117890000D01*
X104430000Y-117890000D02*
X103330000Y-117890000D01*
X102930000Y-117890000D02*
X101830000Y-117890000D01*
X101430000Y-117890000D02*
X100330000Y-117890000D01*
X99930000Y-117890000D02*
X99250000Y-117890000D01*
X99250000Y-117890000D02*
X99250000Y-116790000D01*
X99250000Y-116390000D02*
X99250000Y-115290000D01*
X99250000Y-114890000D02*
X99250000Y-113790000D01*
X99250000Y-113390000D02*
X99250000Y-112290000D01*
X99250000Y-111890000D02*
X99250000Y-110790000D01*
X99250000Y-110390000D02*
X99250000Y-109290000D01*
X99250000Y-108890000D02*
X99250000Y-107790000D01*
X99250000Y-107390000D02*
X99250000Y-106290000D01*
X99250000Y-105890000D02*
X99250000Y-104790000D01*
X99250000Y-104390000D02*
X99250000Y-103290000D01*
X99250000Y-102890000D02*
X99250000Y-101790000D01*
X99250000Y-101390000D02*
X99250000Y-100290000D01*
X99250000Y-99890000D02*
X99250000Y-98790000D01*
X99250000Y-98390000D02*
X99250000Y-97290000D01*
X99250000Y-96890000D02*
X99250000Y-95790000D01*
X99250000Y-95390000D02*
X99250000Y-94290000D01*
X99250000Y-93890000D02*
X99250000Y-92790000D01*
X99250000Y-92390000D02*
X99250000Y-92340000D01*
D11*
X100528780Y-113933183D02*
X101528780Y-113933183D01*
X100528780Y-113456993D02*
X101528780Y-113456993D01*
X101528780Y-113456993D02*
X100528780Y-112885565D01*
X100528780Y-112885565D02*
X101528780Y-112885565D01*
X100528780Y-112409374D02*
X101528780Y-112409374D01*
X101528780Y-112409374D02*
X101528780Y-112028422D01*
X101528780Y-112028422D02*
X101481161Y-111933184D01*
X101481161Y-111933184D02*
X101433542Y-111885565D01*
X101433542Y-111885565D02*
X101338304Y-111837946D01*
X101338304Y-111837946D02*
X101195447Y-111837946D01*
X101195447Y-111837946D02*
X101100209Y-111885565D01*
X101100209Y-111885565D02*
X101052590Y-111933184D01*
X101052590Y-111933184D02*
X101004971Y-112028422D01*
X101004971Y-112028422D02*
X101004971Y-112409374D01*
X101528780Y-111409374D02*
X100719257Y-111409374D01*
X100719257Y-111409374D02*
X100624019Y-111361755D01*
X100624019Y-111361755D02*
X100576400Y-111314136D01*
X100576400Y-111314136D02*
X100528780Y-111218898D01*
X100528780Y-111218898D02*
X100528780Y-111028422D01*
X100528780Y-111028422D02*
X100576400Y-110933184D01*
X100576400Y-110933184D02*
X100624019Y-110885565D01*
X100624019Y-110885565D02*
X100719257Y-110837946D01*
X100719257Y-110837946D02*
X101528780Y-110837946D01*
X101528780Y-110504612D02*
X101528780Y-109933184D01*
X100528780Y-110218898D02*
X101528780Y-110218898D01*
X101528780Y-109123660D02*
X101528780Y-109599850D01*
X101528780Y-109599850D02*
X101052590Y-109647469D01*
X101052590Y-109647469D02*
X101100209Y-109599850D01*
X101100209Y-109599850D02*
X101147828Y-109504612D01*
X101147828Y-109504612D02*
X101147828Y-109266517D01*
X101147828Y-109266517D02*
X101100209Y-109171279D01*
X101100209Y-109171279D02*
X101052590Y-109123660D01*
X101052590Y-109123660D02*
X100957352Y-109076041D01*
X100957352Y-109076041D02*
X100719257Y-109076041D01*
X100719257Y-109076041D02*
X100624019Y-109123660D01*
X100624019Y-109123660D02*
X100576400Y-109171279D01*
X100576400Y-109171279D02*
X100528780Y-109266517D01*
X100528780Y-109266517D02*
X100528780Y-109504612D01*
X100528780Y-109504612D02*
X100576400Y-109599850D01*
X100576400Y-109599850D02*
X100624019Y-109647469D01*
D12*
X107162960Y-75286351D02*
X107772484Y-75286351D01*
X107391532Y-74219684D02*
X107391532Y-75591113D01*
X107391532Y-75591113D02*
X107467722Y-75743494D01*
X107467722Y-75743494D02*
X107620103Y-75819684D01*
X107620103Y-75819684D02*
X107772484Y-75819684D01*
X108610580Y-75819684D02*
X108762961Y-75819684D01*
X108762961Y-75819684D02*
X108915342Y-75743494D01*
X108915342Y-75743494D02*
X108991532Y-75667303D01*
X108991532Y-75667303D02*
X109067723Y-75514922D01*
X109067723Y-75514922D02*
X109143913Y-75210160D01*
X109143913Y-75210160D02*
X109143913Y-74829208D01*
X109143913Y-74829208D02*
X109067723Y-74524446D01*
X109067723Y-74524446D02*
X108991532Y-74372065D01*
X108991532Y-74372065D02*
X108915342Y-74295875D01*
X108915342Y-74295875D02*
X108762961Y-74219684D01*
X108762961Y-74219684D02*
X108610580Y-74219684D01*
X108610580Y-74219684D02*
X108458199Y-74295875D01*
X108458199Y-74295875D02*
X108382008Y-74372065D01*
X108382008Y-74372065D02*
X108305818Y-74524446D01*
X108305818Y-74524446D02*
X108229627Y-74829208D01*
X108229627Y-74829208D02*
X108229627Y-75210160D01*
X108229627Y-75210160D02*
X108305818Y-75514922D01*
X108305818Y-75514922D02*
X108382008Y-75667303D01*
X108382008Y-75667303D02*
X108458199Y-75743494D01*
X108458199Y-75743494D02*
X108610580Y-75819684D01*
X109677247Y-74219684D02*
X110515342Y-75286351D01*
X109677247Y-75286351D02*
X110515342Y-74219684D01*
X110972485Y-74219684D02*
X111810580Y-75286351D01*
X110972485Y-75286351D02*
X111810580Y-74219684D01*
X112267723Y-74219684D02*
X113105818Y-75286351D01*
X112267723Y-75286351D02*
X113105818Y-74219684D01*
X113562961Y-74219684D02*
X114401056Y-75286351D01*
X113562961Y-75286351D02*
X114401056Y-74219684D01*
X114858199Y-74219684D02*
X115696294Y-75286351D01*
X114858199Y-75286351D02*
X115696294Y-74219684D01*
X116153437Y-75286351D02*
X116534389Y-74219684D01*
X116915342Y-75286351D02*
X116534389Y-74219684D01*
X116534389Y-74219684D02*
X116382008Y-73838732D01*
X116382008Y-73838732D02*
X116305818Y-73762541D01*
X116305818Y-73762541D02*
X116153437Y-73686351D01*
D11*
X107328780Y-113933183D02*
X108328780Y-113933183D01*
X107328780Y-113456993D02*
X108328780Y-113456993D01*
X108328780Y-113456993D02*
X107328780Y-112885565D01*
X107328780Y-112885565D02*
X108328780Y-112885565D01*
X107328780Y-112409374D02*
X108328780Y-112409374D01*
X108328780Y-112409374D02*
X108328780Y-112028422D01*
X108328780Y-112028422D02*
X108281161Y-111933184D01*
X108281161Y-111933184D02*
X108233542Y-111885565D01*
X108233542Y-111885565D02*
X108138304Y-111837946D01*
X108138304Y-111837946D02*
X107995447Y-111837946D01*
X107995447Y-111837946D02*
X107900209Y-111885565D01*
X107900209Y-111885565D02*
X107852590Y-111933184D01*
X107852590Y-111933184D02*
X107804971Y-112028422D01*
X107804971Y-112028422D02*
X107804971Y-112409374D01*
X108328780Y-111409374D02*
X107519257Y-111409374D01*
X107519257Y-111409374D02*
X107424019Y-111361755D01*
X107424019Y-111361755D02*
X107376400Y-111314136D01*
X107376400Y-111314136D02*
X107328780Y-111218898D01*
X107328780Y-111218898D02*
X107328780Y-111028422D01*
X107328780Y-111028422D02*
X107376400Y-110933184D01*
X107376400Y-110933184D02*
X107424019Y-110885565D01*
X107424019Y-110885565D02*
X107519257Y-110837946D01*
X107519257Y-110837946D02*
X108328780Y-110837946D01*
X108328780Y-110504612D02*
X108328780Y-109933184D01*
X107328780Y-110218898D02*
X108328780Y-110218898D01*
X108328780Y-109695088D02*
X108328780Y-109076041D01*
X108328780Y-109076041D02*
X107947828Y-109409374D01*
X107947828Y-109409374D02*
X107947828Y-109266517D01*
X107947828Y-109266517D02*
X107900209Y-109171279D01*
X107900209Y-109171279D02*
X107852590Y-109123660D01*
X107852590Y-109123660D02*
X107757352Y-109076041D01*
X107757352Y-109076041D02*
X107519257Y-109076041D01*
X107519257Y-109076041D02*
X107424019Y-109123660D01*
X107424019Y-109123660D02*
X107376400Y-109171279D01*
X107376400Y-109171279D02*
X107328780Y-109266517D01*
X107328780Y-109266517D02*
X107328780Y-109552231D01*
X107328780Y-109552231D02*
X107376400Y-109647469D01*
X107376400Y-109647469D02*
X107424019Y-109695088D01*
X107328780Y-101243183D02*
X108328780Y-101243183D01*
X107328780Y-100766993D02*
X108328780Y-100766993D01*
X108328780Y-100766993D02*
X107328780Y-100195565D01*
X107328780Y-100195565D02*
X108328780Y-100195565D01*
X107328780Y-99719374D02*
X108328780Y-99719374D01*
X108328780Y-99719374D02*
X108328780Y-99338422D01*
X108328780Y-99338422D02*
X108281161Y-99243184D01*
X108281161Y-99243184D02*
X108233542Y-99195565D01*
X108233542Y-99195565D02*
X108138304Y-99147946D01*
X108138304Y-99147946D02*
X107995447Y-99147946D01*
X107995447Y-99147946D02*
X107900209Y-99195565D01*
X107900209Y-99195565D02*
X107852590Y-99243184D01*
X107852590Y-99243184D02*
X107804971Y-99338422D01*
X107804971Y-99338422D02*
X107804971Y-99719374D01*
X108328780Y-98719374D02*
X107519257Y-98719374D01*
X107519257Y-98719374D02*
X107424019Y-98671755D01*
X107424019Y-98671755D02*
X107376400Y-98624136D01*
X107376400Y-98624136D02*
X107328780Y-98528898D01*
X107328780Y-98528898D02*
X107328780Y-98338422D01*
X107328780Y-98338422D02*
X107376400Y-98243184D01*
X107376400Y-98243184D02*
X107424019Y-98195565D01*
X107424019Y-98195565D02*
X107519257Y-98147946D01*
X107519257Y-98147946D02*
X108328780Y-98147946D01*
X108328780Y-97814612D02*
X108328780Y-97243184D01*
X107328780Y-97528898D02*
X108328780Y-97528898D01*
X107900209Y-96766993D02*
X107947828Y-96862231D01*
X107947828Y-96862231D02*
X107995447Y-96909850D01*
X107995447Y-96909850D02*
X108090685Y-96957469D01*
X108090685Y-96957469D02*
X108138304Y-96957469D01*
X108138304Y-96957469D02*
X108233542Y-96909850D01*
X108233542Y-96909850D02*
X108281161Y-96862231D01*
X108281161Y-96862231D02*
X108328780Y-96766993D01*
X108328780Y-96766993D02*
X108328780Y-96576517D01*
X108328780Y-96576517D02*
X108281161Y-96481279D01*
X108281161Y-96481279D02*
X108233542Y-96433660D01*
X108233542Y-96433660D02*
X108138304Y-96386041D01*
X108138304Y-96386041D02*
X108090685Y-96386041D01*
X108090685Y-96386041D02*
X107995447Y-96433660D01*
X107995447Y-96433660D02*
X107947828Y-96481279D01*
X107947828Y-96481279D02*
X107900209Y-96576517D01*
X107900209Y-96576517D02*
X107900209Y-96766993D01*
X107900209Y-96766993D02*
X107852590Y-96862231D01*
X107852590Y-96862231D02*
X107804971Y-96909850D01*
X107804971Y-96909850D02*
X107709733Y-96957469D01*
X107709733Y-96957469D02*
X107519257Y-96957469D01*
X107519257Y-96957469D02*
X107424019Y-96909850D01*
X107424019Y-96909850D02*
X107376400Y-96862231D01*
X107376400Y-96862231D02*
X107328780Y-96766993D01*
X107328780Y-96766993D02*
X107328780Y-96576517D01*
X107328780Y-96576517D02*
X107376400Y-96481279D01*
X107376400Y-96481279D02*
X107424019Y-96433660D01*
X107424019Y-96433660D02*
X107519257Y-96386041D01*
X107519257Y-96386041D02*
X107709733Y-96386041D01*
X107709733Y-96386041D02*
X107804971Y-96433660D01*
X107804971Y-96433660D02*
X107852590Y-96481279D01*
X107852590Y-96481279D02*
X107900209Y-96576517D01*
X100528780Y-101243183D02*
X101528780Y-101243183D01*
X100528780Y-100766993D02*
X101528780Y-100766993D01*
X101528780Y-100766993D02*
X100528780Y-100195565D01*
X100528780Y-100195565D02*
X101528780Y-100195565D01*
X100528780Y-99719374D02*
X101528780Y-99719374D01*
X101528780Y-99719374D02*
X101528780Y-99338422D01*
X101528780Y-99338422D02*
X101481161Y-99243184D01*
X101481161Y-99243184D02*
X101433542Y-99195565D01*
X101433542Y-99195565D02*
X101338304Y-99147946D01*
X101338304Y-99147946D02*
X101195447Y-99147946D01*
X101195447Y-99147946D02*
X101100209Y-99195565D01*
X101100209Y-99195565D02*
X101052590Y-99243184D01*
X101052590Y-99243184D02*
X101004971Y-99338422D01*
X101004971Y-99338422D02*
X101004971Y-99719374D01*
X101528780Y-98719374D02*
X100719257Y-98719374D01*
X100719257Y-98719374D02*
X100624019Y-98671755D01*
X100624019Y-98671755D02*
X100576400Y-98624136D01*
X100576400Y-98624136D02*
X100528780Y-98528898D01*
X100528780Y-98528898D02*
X100528780Y-98338422D01*
X100528780Y-98338422D02*
X100576400Y-98243184D01*
X100576400Y-98243184D02*
X100624019Y-98195565D01*
X100624019Y-98195565D02*
X100719257Y-98147946D01*
X100719257Y-98147946D02*
X101528780Y-98147946D01*
X101528780Y-97814612D02*
X101528780Y-97243184D01*
X100528780Y-97528898D02*
X101528780Y-97528898D01*
X101528780Y-96481279D02*
X101528780Y-96671755D01*
X101528780Y-96671755D02*
X101481161Y-96766993D01*
X101481161Y-96766993D02*
X101433542Y-96814612D01*
X101433542Y-96814612D02*
X101290685Y-96909850D01*
X101290685Y-96909850D02*
X101100209Y-96957469D01*
X101100209Y-96957469D02*
X100719257Y-96957469D01*
X100719257Y-96957469D02*
X100624019Y-96909850D01*
X100624019Y-96909850D02*
X100576400Y-96862231D01*
X100576400Y-96862231D02*
X100528780Y-96766993D01*
X100528780Y-96766993D02*
X100528780Y-96576517D01*
X100528780Y-96576517D02*
X100576400Y-96481279D01*
X100576400Y-96481279D02*
X100624019Y-96433660D01*
X100624019Y-96433660D02*
X100719257Y-96386041D01*
X100719257Y-96386041D02*
X100957352Y-96386041D01*
X100957352Y-96386041D02*
X101052590Y-96433660D01*
X101052590Y-96433660D02*
X101100209Y-96481279D01*
X101100209Y-96481279D02*
X101147828Y-96576517D01*
X101147828Y-96576517D02*
X101147828Y-96766993D01*
X101147828Y-96766993D02*
X101100209Y-96862231D01*
X101100209Y-96862231D02*
X101052590Y-96909850D01*
X101052590Y-96909850D02*
X100957352Y-96957469D01*
X110728780Y-101243183D02*
X111728780Y-101243183D01*
X110728780Y-100766993D02*
X111728780Y-100766993D01*
X111728780Y-100766993D02*
X110728780Y-100195565D01*
X110728780Y-100195565D02*
X111728780Y-100195565D01*
X110728780Y-99719374D02*
X111728780Y-99719374D01*
X111728780Y-99719374D02*
X111728780Y-99338422D01*
X111728780Y-99338422D02*
X111681161Y-99243184D01*
X111681161Y-99243184D02*
X111633542Y-99195565D01*
X111633542Y-99195565D02*
X111538304Y-99147946D01*
X111538304Y-99147946D02*
X111395447Y-99147946D01*
X111395447Y-99147946D02*
X111300209Y-99195565D01*
X111300209Y-99195565D02*
X111252590Y-99243184D01*
X111252590Y-99243184D02*
X111204971Y-99338422D01*
X111204971Y-99338422D02*
X111204971Y-99719374D01*
X111728780Y-98719374D02*
X110919257Y-98719374D01*
X110919257Y-98719374D02*
X110824019Y-98671755D01*
X110824019Y-98671755D02*
X110776400Y-98624136D01*
X110776400Y-98624136D02*
X110728780Y-98528898D01*
X110728780Y-98528898D02*
X110728780Y-98338422D01*
X110728780Y-98338422D02*
X110776400Y-98243184D01*
X110776400Y-98243184D02*
X110824019Y-98195565D01*
X110824019Y-98195565D02*
X110919257Y-98147946D01*
X110919257Y-98147946D02*
X111728780Y-98147946D01*
X111728780Y-97814612D02*
X111728780Y-97243184D01*
X110728780Y-97528898D02*
X111728780Y-97528898D01*
X110728780Y-96862231D02*
X110728780Y-96671755D01*
X110728780Y-96671755D02*
X110776400Y-96576517D01*
X110776400Y-96576517D02*
X110824019Y-96528898D01*
X110824019Y-96528898D02*
X110966876Y-96433660D01*
X110966876Y-96433660D02*
X111157352Y-96386041D01*
X111157352Y-96386041D02*
X111538304Y-96386041D01*
X111538304Y-96386041D02*
X111633542Y-96433660D01*
X111633542Y-96433660D02*
X111681161Y-96481279D01*
X111681161Y-96481279D02*
X111728780Y-96576517D01*
X111728780Y-96576517D02*
X111728780Y-96766993D01*
X111728780Y-96766993D02*
X111681161Y-96862231D01*
X111681161Y-96862231D02*
X111633542Y-96909850D01*
X111633542Y-96909850D02*
X111538304Y-96957469D01*
X111538304Y-96957469D02*
X111300209Y-96957469D01*
X111300209Y-96957469D02*
X111204971Y-96909850D01*
X111204971Y-96909850D02*
X111157352Y-96862231D01*
X111157352Y-96862231D02*
X111109733Y-96766993D01*
X111109733Y-96766993D02*
X111109733Y-96576517D01*
X111109733Y-96576517D02*
X111157352Y-96481279D01*
X111157352Y-96481279D02*
X111204971Y-96433660D01*
X111204971Y-96433660D02*
X111300209Y-96386041D01*
D13*
X116724619Y-94114999D02*
X116724619Y-94305475D01*
X116724619Y-94305475D02*
X116772238Y-94400713D01*
X116772238Y-94400713D02*
X116867476Y-94495951D01*
X116867476Y-94495951D02*
X117057952Y-94543570D01*
X117057952Y-94543570D02*
X117391285Y-94543570D01*
X117391285Y-94543570D02*
X117581761Y-94495951D01*
X117581761Y-94495951D02*
X117677000Y-94400713D01*
X117677000Y-94400713D02*
X117724619Y-94305475D01*
X117724619Y-94305475D02*
X117724619Y-94114999D01*
X117724619Y-94114999D02*
X117677000Y-94019761D01*
X117677000Y-94019761D02*
X117581761Y-93924523D01*
X117581761Y-93924523D02*
X117391285Y-93876904D01*
X117391285Y-93876904D02*
X117057952Y-93876904D01*
X117057952Y-93876904D02*
X116867476Y-93924523D01*
X116867476Y-93924523D02*
X116772238Y-94019761D01*
X116772238Y-94019761D02*
X116724619Y-94114999D01*
X117724619Y-94972142D02*
X116724619Y-94972142D01*
X116724619Y-94972142D02*
X116724619Y-95353094D01*
X116724619Y-95353094D02*
X116772238Y-95448332D01*
X116772238Y-95448332D02*
X116819857Y-95495951D01*
X116819857Y-95495951D02*
X116915095Y-95543570D01*
X116915095Y-95543570D02*
X117057952Y-95543570D01*
X117057952Y-95543570D02*
X117153190Y-95495951D01*
X117153190Y-95495951D02*
X117200809Y-95448332D01*
X117200809Y-95448332D02*
X117248428Y-95353094D01*
X117248428Y-95353094D02*
X117248428Y-94972142D01*
X116724619Y-95829285D02*
X116724619Y-96400713D01*
X117724619Y-96114999D02*
X116724619Y-96114999D01*
X117724619Y-96734047D02*
X116724619Y-96734047D01*
X116724619Y-97400713D02*
X116724619Y-97591189D01*
X116724619Y-97591189D02*
X116772238Y-97686427D01*
X116772238Y-97686427D02*
X116867476Y-97781665D01*
X116867476Y-97781665D02*
X117057952Y-97829284D01*
X117057952Y-97829284D02*
X117391285Y-97829284D01*
X117391285Y-97829284D02*
X117581761Y-97781665D01*
X117581761Y-97781665D02*
X117677000Y-97686427D01*
X117677000Y-97686427D02*
X117724619Y-97591189D01*
X117724619Y-97591189D02*
X117724619Y-97400713D01*
X117724619Y-97400713D02*
X117677000Y-97305475D01*
X117677000Y-97305475D02*
X117581761Y-97210237D01*
X117581761Y-97210237D02*
X117391285Y-97162618D01*
X117391285Y-97162618D02*
X117057952Y-97162618D01*
X117057952Y-97162618D02*
X116867476Y-97210237D01*
X116867476Y-97210237D02*
X116772238Y-97305475D01*
X116772238Y-97305475D02*
X116724619Y-97400713D01*
X117724619Y-98257856D02*
X116724619Y-98257856D01*
X116724619Y-98257856D02*
X117724619Y-98829284D01*
X117724619Y-98829284D02*
X116724619Y-98829284D01*
X117438904Y-99257856D02*
X117438904Y-99734046D01*
X117724619Y-99162618D02*
X116724619Y-99495951D01*
X116724619Y-99495951D02*
X117724619Y-99829284D01*
X117724619Y-100638808D02*
X117724619Y-100162618D01*
X117724619Y-100162618D02*
X116724619Y-100162618D01*
X117200809Y-102067380D02*
X117200809Y-101734047D01*
X117724619Y-101734047D02*
X116724619Y-101734047D01*
X116724619Y-101734047D02*
X116724619Y-102210237D01*
X116724619Y-102591190D02*
X117534142Y-102591190D01*
X117534142Y-102591190D02*
X117629380Y-102638809D01*
X117629380Y-102638809D02*
X117677000Y-102686428D01*
X117677000Y-102686428D02*
X117724619Y-102781666D01*
X117724619Y-102781666D02*
X117724619Y-102972142D01*
X117724619Y-102972142D02*
X117677000Y-103067380D01*
X117677000Y-103067380D02*
X117629380Y-103114999D01*
X117629380Y-103114999D02*
X117534142Y-103162618D01*
X117534142Y-103162618D02*
X116724619Y-103162618D01*
X117677000Y-103591190D02*
X117724619Y-103734047D01*
X117724619Y-103734047D02*
X117724619Y-103972142D01*
X117724619Y-103972142D02*
X117677000Y-104067380D01*
X117677000Y-104067380D02*
X117629380Y-104114999D01*
X117629380Y-104114999D02*
X117534142Y-104162618D01*
X117534142Y-104162618D02*
X117438904Y-104162618D01*
X117438904Y-104162618D02*
X117343666Y-104114999D01*
X117343666Y-104114999D02*
X117296047Y-104067380D01*
X117296047Y-104067380D02*
X117248428Y-103972142D01*
X117248428Y-103972142D02*
X117200809Y-103781666D01*
X117200809Y-103781666D02*
X117153190Y-103686428D01*
X117153190Y-103686428D02*
X117105571Y-103638809D01*
X117105571Y-103638809D02*
X117010333Y-103591190D01*
X117010333Y-103591190D02*
X116915095Y-103591190D01*
X116915095Y-103591190D02*
X116819857Y-103638809D01*
X116819857Y-103638809D02*
X116772238Y-103686428D01*
X116772238Y-103686428D02*
X116724619Y-103781666D01*
X116724619Y-103781666D02*
X116724619Y-104019761D01*
X116724619Y-104019761D02*
X116772238Y-104162618D01*
X117200809Y-104591190D02*
X117200809Y-104924523D01*
X117724619Y-105067380D02*
X117724619Y-104591190D01*
X117724619Y-104591190D02*
X116724619Y-104591190D01*
X116724619Y-104591190D02*
X116724619Y-105067380D01*
X117724619Y-105495952D02*
X116724619Y-105495952D01*
X116724619Y-105495952D02*
X116724619Y-105734047D01*
X116724619Y-105734047D02*
X116772238Y-105876904D01*
X116772238Y-105876904D02*
X116867476Y-105972142D01*
X116867476Y-105972142D02*
X116962714Y-106019761D01*
X116962714Y-106019761D02*
X117153190Y-106067380D01*
X117153190Y-106067380D02*
X117296047Y-106067380D01*
X117296047Y-106067380D02*
X117486523Y-106019761D01*
X117486523Y-106019761D02*
X117581761Y-105972142D01*
X117581761Y-105972142D02*
X117677000Y-105876904D01*
X117677000Y-105876904D02*
X117724619Y-105734047D01*
X117724619Y-105734047D02*
X117724619Y-105495952D01*
X117343666Y-107257857D02*
X117343666Y-108019762D01*
X117724619Y-107638809D02*
X116962714Y-107638809D01*
X116724619Y-108972142D02*
X116724619Y-108495952D01*
X116724619Y-108495952D02*
X117200809Y-108448333D01*
X117200809Y-108448333D02*
X117153190Y-108495952D01*
X117153190Y-108495952D02*
X117105571Y-108591190D01*
X117105571Y-108591190D02*
X117105571Y-108829285D01*
X117105571Y-108829285D02*
X117153190Y-108924523D01*
X117153190Y-108924523D02*
X117200809Y-108972142D01*
X117200809Y-108972142D02*
X117296047Y-109019761D01*
X117296047Y-109019761D02*
X117534142Y-109019761D01*
X117534142Y-109019761D02*
X117629380Y-108972142D01*
X117629380Y-108972142D02*
X117677000Y-108924523D01*
X117677000Y-108924523D02*
X117724619Y-108829285D01*
X117724619Y-108829285D02*
X117724619Y-108591190D01*
X117724619Y-108591190D02*
X117677000Y-108495952D01*
X117677000Y-108495952D02*
X117629380Y-108448333D01*
X116724619Y-109305476D02*
X117724619Y-109638809D01*
X117724619Y-109638809D02*
X116724619Y-109972142D01*
X117724619Y-111067381D02*
X116724619Y-111067381D01*
X116724619Y-111067381D02*
X116724619Y-111448333D01*
X116724619Y-111448333D02*
X116772238Y-111543571D01*
X116772238Y-111543571D02*
X116819857Y-111591190D01*
X116819857Y-111591190D02*
X116915095Y-111638809D01*
X116915095Y-111638809D02*
X117057952Y-111638809D01*
X117057952Y-111638809D02*
X117153190Y-111591190D01*
X117153190Y-111591190D02*
X117200809Y-111543571D01*
X117200809Y-111543571D02*
X117248428Y-111448333D01*
X117248428Y-111448333D02*
X117248428Y-111067381D01*
X116724619Y-112067381D02*
X117534142Y-112067381D01*
X117534142Y-112067381D02*
X117629380Y-112115000D01*
X117629380Y-112115000D02*
X117677000Y-112162619D01*
X117677000Y-112162619D02*
X117724619Y-112257857D01*
X117724619Y-112257857D02*
X117724619Y-112448333D01*
X117724619Y-112448333D02*
X117677000Y-112543571D01*
X117677000Y-112543571D02*
X117629380Y-112591190D01*
X117629380Y-112591190D02*
X117534142Y-112638809D01*
X117534142Y-112638809D02*
X116724619Y-112638809D01*
X117724619Y-113591190D02*
X117724619Y-113115000D01*
X117724619Y-113115000D02*
X116724619Y-113115000D01*
X117724619Y-114400714D02*
X117724619Y-113924524D01*
X117724619Y-113924524D02*
X116724619Y-113924524D01*
X116724619Y-114734048D02*
X117534142Y-114734048D01*
X117534142Y-114734048D02*
X117629380Y-114781667D01*
X117629380Y-114781667D02*
X117677000Y-114829286D01*
X117677000Y-114829286D02*
X117724619Y-114924524D01*
X117724619Y-114924524D02*
X117724619Y-115115000D01*
X117724619Y-115115000D02*
X117677000Y-115210238D01*
X117677000Y-115210238D02*
X117629380Y-115257857D01*
X117629380Y-115257857D02*
X117534142Y-115305476D01*
X117534142Y-115305476D02*
X116724619Y-115305476D01*
X117724619Y-115781667D02*
X116724619Y-115781667D01*
X116724619Y-115781667D02*
X116724619Y-116162619D01*
X116724619Y-116162619D02*
X116772238Y-116257857D01*
X116772238Y-116257857D02*
X116819857Y-116305476D01*
X116819857Y-116305476D02*
X116915095Y-116353095D01*
X116915095Y-116353095D02*
X117057952Y-116353095D01*
X117057952Y-116353095D02*
X117153190Y-116305476D01*
X117153190Y-116305476D02*
X117200809Y-116257857D01*
X117200809Y-116257857D02*
X117248428Y-116162619D01*
X117248428Y-116162619D02*
X117248428Y-115781667D01*
D11*
X114128780Y-101719374D02*
X115128780Y-101719374D01*
X114128780Y-101243184D02*
X115128780Y-101243184D01*
X115128780Y-101243184D02*
X114128780Y-100671756D01*
X114128780Y-100671756D02*
X115128780Y-100671756D01*
X114128780Y-100195565D02*
X115128780Y-100195565D01*
X115128780Y-100195565D02*
X115128780Y-99814613D01*
X115128780Y-99814613D02*
X115081161Y-99719375D01*
X115081161Y-99719375D02*
X115033542Y-99671756D01*
X115033542Y-99671756D02*
X114938304Y-99624137D01*
X114938304Y-99624137D02*
X114795447Y-99624137D01*
X114795447Y-99624137D02*
X114700209Y-99671756D01*
X114700209Y-99671756D02*
X114652590Y-99719375D01*
X114652590Y-99719375D02*
X114604971Y-99814613D01*
X114604971Y-99814613D02*
X114604971Y-100195565D01*
X115128780Y-99195565D02*
X114319257Y-99195565D01*
X114319257Y-99195565D02*
X114224019Y-99147946D01*
X114224019Y-99147946D02*
X114176400Y-99100327D01*
X114176400Y-99100327D02*
X114128780Y-99005089D01*
X114128780Y-99005089D02*
X114128780Y-98814613D01*
X114128780Y-98814613D02*
X114176400Y-98719375D01*
X114176400Y-98719375D02*
X114224019Y-98671756D01*
X114224019Y-98671756D02*
X114319257Y-98624137D01*
X114319257Y-98624137D02*
X115128780Y-98624137D01*
X115128780Y-98290803D02*
X115128780Y-97719375D01*
X114128780Y-98005089D02*
X115128780Y-98005089D01*
X114128780Y-96862232D02*
X114128780Y-97433660D01*
X114128780Y-97147946D02*
X115128780Y-97147946D01*
X115128780Y-97147946D02*
X114985923Y-97243184D01*
X114985923Y-97243184D02*
X114890685Y-97338422D01*
X114890685Y-97338422D02*
X114843066Y-97433660D01*
X115128780Y-96243184D02*
X115128780Y-96147946D01*
X115128780Y-96147946D02*
X115081161Y-96052708D01*
X115081161Y-96052708D02*
X115033542Y-96005089D01*
X115033542Y-96005089D02*
X114938304Y-95957470D01*
X114938304Y-95957470D02*
X114747828Y-95909851D01*
X114747828Y-95909851D02*
X114509733Y-95909851D01*
X114509733Y-95909851D02*
X114319257Y-95957470D01*
X114319257Y-95957470D02*
X114224019Y-96005089D01*
X114224019Y-96005089D02*
X114176400Y-96052708D01*
X114176400Y-96052708D02*
X114128780Y-96147946D01*
X114128780Y-96147946D02*
X114128780Y-96243184D01*
X114128780Y-96243184D02*
X114176400Y-96338422D01*
X114176400Y-96338422D02*
X114224019Y-96386041D01*
X114224019Y-96386041D02*
X114319257Y-96433660D01*
X114319257Y-96433660D02*
X114509733Y-96481279D01*
X114509733Y-96481279D02*
X114747828Y-96481279D01*
X114747828Y-96481279D02*
X114938304Y-96433660D01*
X114938304Y-96433660D02*
X115033542Y-96386041D01*
X115033542Y-96386041D02*
X115081161Y-96338422D01*
X115081161Y-96338422D02*
X115128780Y-96243184D01*
X103928780Y-101243183D02*
X104928780Y-101243183D01*
X103928780Y-100766993D02*
X104928780Y-100766993D01*
X104928780Y-100766993D02*
X103928780Y-100195565D01*
X103928780Y-100195565D02*
X104928780Y-100195565D01*
X103928780Y-99719374D02*
X104928780Y-99719374D01*
X104928780Y-99719374D02*
X104928780Y-99338422D01*
X104928780Y-99338422D02*
X104881161Y-99243184D01*
X104881161Y-99243184D02*
X104833542Y-99195565D01*
X104833542Y-99195565D02*
X104738304Y-99147946D01*
X104738304Y-99147946D02*
X104595447Y-99147946D01*
X104595447Y-99147946D02*
X104500209Y-99195565D01*
X104500209Y-99195565D02*
X104452590Y-99243184D01*
X104452590Y-99243184D02*
X104404971Y-99338422D01*
X104404971Y-99338422D02*
X104404971Y-99719374D01*
X104928780Y-98719374D02*
X104119257Y-98719374D01*
X104119257Y-98719374D02*
X104024019Y-98671755D01*
X104024019Y-98671755D02*
X103976400Y-98624136D01*
X103976400Y-98624136D02*
X103928780Y-98528898D01*
X103928780Y-98528898D02*
X103928780Y-98338422D01*
X103928780Y-98338422D02*
X103976400Y-98243184D01*
X103976400Y-98243184D02*
X104024019Y-98195565D01*
X104024019Y-98195565D02*
X104119257Y-98147946D01*
X104119257Y-98147946D02*
X104928780Y-98147946D01*
X104928780Y-97814612D02*
X104928780Y-97243184D01*
X103928780Y-97528898D02*
X104928780Y-97528898D01*
X104928780Y-97005088D02*
X104928780Y-96338422D01*
X104928780Y-96338422D02*
X103928780Y-96766993D01*
X103928780Y-113933183D02*
X104928780Y-113933183D01*
X103928780Y-113456993D02*
X104928780Y-113456993D01*
X104928780Y-113456993D02*
X103928780Y-112885565D01*
X103928780Y-112885565D02*
X104928780Y-112885565D01*
X103928780Y-112409374D02*
X104928780Y-112409374D01*
X104928780Y-112409374D02*
X104928780Y-112028422D01*
X104928780Y-112028422D02*
X104881161Y-111933184D01*
X104881161Y-111933184D02*
X104833542Y-111885565D01*
X104833542Y-111885565D02*
X104738304Y-111837946D01*
X104738304Y-111837946D02*
X104595447Y-111837946D01*
X104595447Y-111837946D02*
X104500209Y-111885565D01*
X104500209Y-111885565D02*
X104452590Y-111933184D01*
X104452590Y-111933184D02*
X104404971Y-112028422D01*
X104404971Y-112028422D02*
X104404971Y-112409374D01*
X104928780Y-111409374D02*
X104119257Y-111409374D01*
X104119257Y-111409374D02*
X104024019Y-111361755D01*
X104024019Y-111361755D02*
X103976400Y-111314136D01*
X103976400Y-111314136D02*
X103928780Y-111218898D01*
X103928780Y-111218898D02*
X103928780Y-111028422D01*
X103928780Y-111028422D02*
X103976400Y-110933184D01*
X103976400Y-110933184D02*
X104024019Y-110885565D01*
X104024019Y-110885565D02*
X104119257Y-110837946D01*
X104119257Y-110837946D02*
X104928780Y-110837946D01*
X104928780Y-110504612D02*
X104928780Y-109933184D01*
X103928780Y-110218898D02*
X104928780Y-110218898D01*
X104595447Y-109171279D02*
X103928780Y-109171279D01*
X104976400Y-109409374D02*
X104262114Y-109647469D01*
X104262114Y-109647469D02*
X104262114Y-109028422D01*
X114128780Y-113933183D02*
X115128780Y-113933183D01*
X114128780Y-113456993D02*
X115128780Y-113456993D01*
X115128780Y-113456993D02*
X114128780Y-112885565D01*
X114128780Y-112885565D02*
X115128780Y-112885565D01*
X114128780Y-112409374D02*
X115128780Y-112409374D01*
X115128780Y-112409374D02*
X115128780Y-112028422D01*
X115128780Y-112028422D02*
X115081161Y-111933184D01*
X115081161Y-111933184D02*
X115033542Y-111885565D01*
X115033542Y-111885565D02*
X114938304Y-111837946D01*
X114938304Y-111837946D02*
X114795447Y-111837946D01*
X114795447Y-111837946D02*
X114700209Y-111885565D01*
X114700209Y-111885565D02*
X114652590Y-111933184D01*
X114652590Y-111933184D02*
X114604971Y-112028422D01*
X114604971Y-112028422D02*
X114604971Y-112409374D01*
X115128780Y-111409374D02*
X114319257Y-111409374D01*
X114319257Y-111409374D02*
X114224019Y-111361755D01*
X114224019Y-111361755D02*
X114176400Y-111314136D01*
X114176400Y-111314136D02*
X114128780Y-111218898D01*
X114128780Y-111218898D02*
X114128780Y-111028422D01*
X114128780Y-111028422D02*
X114176400Y-110933184D01*
X114176400Y-110933184D02*
X114224019Y-110885565D01*
X114224019Y-110885565D02*
X114319257Y-110837946D01*
X114319257Y-110837946D02*
X115128780Y-110837946D01*
X115128780Y-110504612D02*
X115128780Y-109933184D01*
X114128780Y-110218898D02*
X115128780Y-110218898D01*
X114128780Y-109076041D02*
X114128780Y-109647469D01*
X114128780Y-109361755D02*
X115128780Y-109361755D01*
X115128780Y-109361755D02*
X114985923Y-109456993D01*
X114985923Y-109456993D02*
X114890685Y-109552231D01*
X114890685Y-109552231D02*
X114843066Y-109647469D01*
D12*
X115868345Y-126337542D02*
X115868345Y-125137542D01*
X115868345Y-125137542D02*
X115468345Y-125994685D01*
X115468345Y-125994685D02*
X115068345Y-125137542D01*
X115068345Y-125137542D02*
X115068345Y-126337542D01*
X114611202Y-125137542D02*
X113811202Y-126337542D01*
X113811202Y-125137542D02*
X114611202Y-126337542D01*
X113411202Y-125251828D02*
X113354059Y-125194685D01*
X113354059Y-125194685D02*
X113239774Y-125137542D01*
X113239774Y-125137542D02*
X112954059Y-125137542D01*
X112954059Y-125137542D02*
X112839774Y-125194685D01*
X112839774Y-125194685D02*
X112782631Y-125251828D01*
X112782631Y-125251828D02*
X112725488Y-125366114D01*
X112725488Y-125366114D02*
X112725488Y-125480400D01*
X112725488Y-125480400D02*
X112782631Y-125651828D01*
X112782631Y-125651828D02*
X113468345Y-126337542D01*
X113468345Y-126337542D02*
X112725488Y-126337542D01*
X112325488Y-125137542D02*
X111582631Y-125137542D01*
X111582631Y-125137542D02*
X111982631Y-125594685D01*
X111982631Y-125594685D02*
X111811202Y-125594685D01*
X111811202Y-125594685D02*
X111696917Y-125651828D01*
X111696917Y-125651828D02*
X111639774Y-125708971D01*
X111639774Y-125708971D02*
X111582631Y-125823257D01*
X111582631Y-125823257D02*
X111582631Y-126108971D01*
X111582631Y-126108971D02*
X111639774Y-126223257D01*
X111639774Y-126223257D02*
X111696917Y-126280400D01*
X111696917Y-126280400D02*
X111811202Y-126337542D01*
X111811202Y-126337542D02*
X112154059Y-126337542D01*
X112154059Y-126337542D02*
X112268345Y-126280400D01*
X112268345Y-126280400D02*
X112325488Y-126223257D01*
X111125488Y-125994685D02*
X110554060Y-125994685D01*
X111239774Y-126337542D02*
X110839774Y-125137542D01*
X110839774Y-125137542D02*
X110439774Y-126337542D01*
X109411203Y-126337542D02*
X110096917Y-126337542D01*
X109754060Y-126337542D02*
X109754060Y-125137542D01*
X109754060Y-125137542D02*
X109868346Y-125308971D01*
X109868346Y-125308971D02*
X109982631Y-125423257D01*
X109982631Y-125423257D02*
X110096917Y-125480400D01*
X108725489Y-125651828D02*
X108839774Y-125594685D01*
X108839774Y-125594685D02*
X108896917Y-125537542D01*
X108896917Y-125537542D02*
X108954060Y-125423257D01*
X108954060Y-125423257D02*
X108954060Y-125366114D01*
X108954060Y-125366114D02*
X108896917Y-125251828D01*
X108896917Y-125251828D02*
X108839774Y-125194685D01*
X108839774Y-125194685D02*
X108725489Y-125137542D01*
X108725489Y-125137542D02*
X108496917Y-125137542D01*
X108496917Y-125137542D02*
X108382632Y-125194685D01*
X108382632Y-125194685D02*
X108325489Y-125251828D01*
X108325489Y-125251828D02*
X108268346Y-125366114D01*
X108268346Y-125366114D02*
X108268346Y-125423257D01*
X108268346Y-125423257D02*
X108325489Y-125537542D01*
X108325489Y-125537542D02*
X108382632Y-125594685D01*
X108382632Y-125594685D02*
X108496917Y-125651828D01*
X108496917Y-125651828D02*
X108725489Y-125651828D01*
X108725489Y-125651828D02*
X108839774Y-125708971D01*
X108839774Y-125708971D02*
X108896917Y-125766114D01*
X108896917Y-125766114D02*
X108954060Y-125880400D01*
X108954060Y-125880400D02*
X108954060Y-126108971D01*
X108954060Y-126108971D02*
X108896917Y-126223257D01*
X108896917Y-126223257D02*
X108839774Y-126280400D01*
X108839774Y-126280400D02*
X108725489Y-126337542D01*
X108725489Y-126337542D02*
X108496917Y-126337542D01*
X108496917Y-126337542D02*
X108382632Y-126280400D01*
X108382632Y-126280400D02*
X108325489Y-126223257D01*
X108325489Y-126223257D02*
X108268346Y-126108971D01*
X108268346Y-126108971D02*
X108268346Y-125880400D01*
X108268346Y-125880400D02*
X108325489Y-125766114D01*
X108325489Y-125766114D02*
X108382632Y-125708971D01*
X108382632Y-125708971D02*
X108496917Y-125651828D01*
X107754060Y-126337542D02*
X107754060Y-125137542D01*
X107754060Y-125137542D02*
X107068346Y-126337542D01*
X107068346Y-126337542D02*
X107068346Y-125137542D01*
X106096917Y-125708971D02*
X106496917Y-125708971D01*
X106496917Y-126337542D02*
X106496917Y-125137542D01*
X106496917Y-125137542D02*
X105925489Y-125137542D01*
X104839775Y-126337542D02*
X105525489Y-126337542D01*
X105182632Y-126337542D02*
X105182632Y-125137542D01*
X105182632Y-125137542D02*
X105296918Y-125308971D01*
X105296918Y-125308971D02*
X105411203Y-125423257D01*
X105411203Y-125423257D02*
X105525489Y-125480400D01*
D11*
X110728780Y-113933183D02*
X111728780Y-113933183D01*
X110728780Y-113456993D02*
X111728780Y-113456993D01*
X111728780Y-113456993D02*
X110728780Y-112885565D01*
X110728780Y-112885565D02*
X111728780Y-112885565D01*
X110728780Y-112409374D02*
X111728780Y-112409374D01*
X111728780Y-112409374D02*
X111728780Y-112028422D01*
X111728780Y-112028422D02*
X111681161Y-111933184D01*
X111681161Y-111933184D02*
X111633542Y-111885565D01*
X111633542Y-111885565D02*
X111538304Y-111837946D01*
X111538304Y-111837946D02*
X111395447Y-111837946D01*
X111395447Y-111837946D02*
X111300209Y-111885565D01*
X111300209Y-111885565D02*
X111252590Y-111933184D01*
X111252590Y-111933184D02*
X111204971Y-112028422D01*
X111204971Y-112028422D02*
X111204971Y-112409374D01*
X111728780Y-111409374D02*
X110919257Y-111409374D01*
X110919257Y-111409374D02*
X110824019Y-111361755D01*
X110824019Y-111361755D02*
X110776400Y-111314136D01*
X110776400Y-111314136D02*
X110728780Y-111218898D01*
X110728780Y-111218898D02*
X110728780Y-111028422D01*
X110728780Y-111028422D02*
X110776400Y-110933184D01*
X110776400Y-110933184D02*
X110824019Y-110885565D01*
X110824019Y-110885565D02*
X110919257Y-110837946D01*
X110919257Y-110837946D02*
X111728780Y-110837946D01*
X111728780Y-110504612D02*
X111728780Y-109933184D01*
X110728780Y-110218898D02*
X111728780Y-110218898D01*
X111633542Y-109647469D02*
X111681161Y-109599850D01*
X111681161Y-109599850D02*
X111728780Y-109504612D01*
X111728780Y-109504612D02*
X111728780Y-109266517D01*
X111728780Y-109266517D02*
X111681161Y-109171279D01*
X111681161Y-109171279D02*
X111633542Y-109123660D01*
X111633542Y-109123660D02*
X111538304Y-109076041D01*
X111538304Y-109076041D02*
X111443066Y-109076041D01*
X111443066Y-109076041D02*
X111300209Y-109123660D01*
X111300209Y-109123660D02*
X110728780Y-109695088D01*
X110728780Y-109695088D02*
X110728780Y-109076041D01*
D14*
%TO.C,G\u002A\u002A\u002A*%
G36*
X104099718Y-73586324D02*
G01*
X104126409Y-73603448D01*
X104133215Y-73611116D01*
X104140650Y-73624698D01*
X104145489Y-73644788D01*
X104148275Y-73675619D01*
X104149548Y-73721422D01*
X104149852Y-73786432D01*
X104149852Y-73945974D01*
X104105897Y-73937662D01*
X104081413Y-73933868D01*
X104014076Y-73929440D01*
X103942926Y-73931441D01*
X103876869Y-73939390D01*
X103824812Y-73952809D01*
X103793272Y-73965817D01*
X103743195Y-73993650D01*
X103702258Y-74029509D01*
X103665445Y-74078280D01*
X103627741Y-74144851D01*
X103599340Y-74197016D01*
X103571949Y-74239105D01*
X103540699Y-74276896D01*
X103500579Y-74316448D01*
X103446576Y-74363818D01*
X103405551Y-74398739D01*
X103436226Y-74410455D01*
X103478444Y-74417923D01*
X103533220Y-74406948D01*
X103591203Y-74375362D01*
X103650581Y-74324202D01*
X103709542Y-74254498D01*
X103734988Y-74221810D01*
X103787914Y-74166907D01*
X103842109Y-74130974D01*
X103902185Y-74111399D01*
X103972754Y-74105573D01*
X104010927Y-74107198D01*
X104059025Y-74112900D01*
X104095623Y-74121259D01*
X104120199Y-74131400D01*
X104137724Y-74145814D01*
X104151913Y-74170278D01*
X104167761Y-74211007D01*
X104183053Y-74248340D01*
X104203103Y-74287542D01*
X104221060Y-74313522D01*
X104223455Y-74316108D01*
X104239006Y-74335570D01*
X104242692Y-74345621D01*
X104235115Y-74348058D01*
X104208496Y-74354536D01*
X104167632Y-74363628D01*
X104117543Y-74374189D01*
X104078789Y-74382918D01*
X103954939Y-74422399D01*
X103847449Y-74475817D01*
X103758138Y-74542322D01*
X103732200Y-74568082D01*
X103669809Y-74651271D01*
X103621134Y-74750456D01*
X103587125Y-74862788D01*
X103568733Y-74985416D01*
X103566909Y-75115492D01*
X103573062Y-75185054D01*
X103591107Y-75270475D01*
X103622531Y-75348004D01*
X103670028Y-75425751D01*
X103680175Y-75440319D01*
X103700307Y-75471406D01*
X103709419Y-75493022D01*
X103709599Y-75512148D01*
X103702934Y-75535763D01*
X103695067Y-75570746D01*
X103690133Y-75630371D01*
X103691131Y-75697841D01*
X103697853Y-75764790D01*
X103710092Y-75822854D01*
X103730222Y-75891408D01*
X103784730Y-75883401D01*
X103840085Y-75870824D01*
X103913085Y-75845592D01*
X103989940Y-75811606D01*
X104062961Y-75771945D01*
X104134307Y-75728777D01*
X104238780Y-75750948D01*
X104285089Y-75759178D01*
X104381952Y-75769433D01*
X104488805Y-75773737D01*
X104597482Y-75772091D01*
X104699817Y-75764495D01*
X104787643Y-75750948D01*
X104892116Y-75728777D01*
X104968109Y-75774944D01*
X105000706Y-75793780D01*
X105084428Y-75834647D01*
X105167254Y-75865493D01*
X105241224Y-75883163D01*
X105294856Y-75891206D01*
X105315979Y-75816893D01*
X105322342Y-75791324D01*
X105332883Y-75723601D01*
X105336764Y-75652955D01*
X105333756Y-75587782D01*
X105323630Y-75536476D01*
X105319165Y-75521930D01*
X105316593Y-75502637D01*
X105321458Y-75482953D01*
X105335754Y-75456599D01*
X105361475Y-75417299D01*
X105386190Y-75379015D01*
X105416180Y-75324515D01*
X105436480Y-75271931D01*
X105448767Y-75214969D01*
X105454720Y-75147338D01*
X105456015Y-75062746D01*
X105455870Y-75045116D01*
X105452902Y-74958697D01*
X105445974Y-74890189D01*
X105434665Y-74835119D01*
X105416916Y-74778480D01*
X105367728Y-74670836D01*
X105302291Y-74579300D01*
X105220090Y-74503447D01*
X105120613Y-74442851D01*
X105003348Y-74397090D01*
X104867780Y-74365737D01*
X104861385Y-74364640D01*
X104821553Y-74356555D01*
X104793445Y-74348703D01*
X104782801Y-74342645D01*
X104788686Y-74331448D01*
X104805998Y-74312807D01*
X104816805Y-74299759D01*
X104835651Y-74267506D01*
X104852883Y-74228502D01*
X104855255Y-74222028D01*
X104862436Y-74199381D01*
X104867815Y-74174708D01*
X104871645Y-74144441D01*
X104874182Y-74105010D01*
X104875679Y-74052845D01*
X104876390Y-73984378D01*
X104876571Y-73896040D01*
X104876632Y-73826623D01*
X104877017Y-73756244D01*
X104877976Y-73703828D01*
X104879756Y-73666295D01*
X104882603Y-73640568D01*
X104886764Y-73623570D01*
X104892485Y-73612222D01*
X104900014Y-73603448D01*
X104910216Y-73594760D01*
X104938509Y-73582951D01*
X104976038Y-73583081D01*
X105026260Y-73595454D01*
X105092632Y-73620374D01*
X105217893Y-73678825D01*
X105356721Y-73762330D01*
X105487048Y-73863245D01*
X105613185Y-73984586D01*
X105696429Y-74080221D01*
X105802416Y-74231399D01*
X105887995Y-74393835D01*
X105952698Y-74566592D01*
X105996054Y-74748734D01*
X106004428Y-74812100D01*
X106010754Y-74903035D01*
X106013003Y-75002658D01*
X106011186Y-75103111D01*
X106005311Y-75196535D01*
X105995391Y-75275073D01*
X105953987Y-75450845D01*
X105891219Y-75619915D01*
X105807364Y-75779304D01*
X105702064Y-75929690D01*
X105574961Y-76071750D01*
X105435790Y-76196551D01*
X105285575Y-76302279D01*
X105126370Y-76386555D01*
X104957499Y-76449736D01*
X104778284Y-76492180D01*
X104714217Y-76500714D01*
X104622748Y-76507270D01*
X104522928Y-76509770D01*
X104422615Y-76508206D01*
X104329668Y-76502567D01*
X104251945Y-76492843D01*
X104087676Y-76454927D01*
X103914560Y-76392655D01*
X103751459Y-76309192D01*
X103598345Y-76204522D01*
X103455191Y-76078632D01*
X103330967Y-75940662D01*
X103224403Y-75788647D01*
X103138525Y-75625921D01*
X103073719Y-75453217D01*
X103030369Y-75271267D01*
X103021654Y-75204079D01*
X103015593Y-75113741D01*
X103013455Y-75015103D01*
X103015237Y-74915998D01*
X103020935Y-74824255D01*
X103030548Y-74747704D01*
X103038490Y-74705748D01*
X103086398Y-74528219D01*
X103155163Y-74359345D01*
X103243458Y-74200786D01*
X103349954Y-74054204D01*
X103473325Y-73921259D01*
X103612241Y-73803612D01*
X103765375Y-73702925D01*
X103931399Y-73620858D01*
X103954200Y-73611553D01*
X104016738Y-73590098D01*
X104064203Y-73581781D01*
X104099718Y-73586324D01*
G37*
D15*
%TO.C,R18*%
X109890000Y-108190000D02*
X109890000Y-114730000D01*
X109890000Y-114730000D02*
X112630000Y-114730000D01*
X111260000Y-108190000D02*
X111260000Y-107420000D01*
X111260000Y-114730000D02*
X111260000Y-115500000D01*
X112630000Y-108190000D02*
X109890000Y-108190000D01*
X112630000Y-114730000D02*
X112630000Y-108190000D01*
%TO.C,R27*%
X99690000Y-108190000D02*
X99690000Y-114730000D01*
X99690000Y-114730000D02*
X102430000Y-114730000D01*
X101060000Y-108190000D02*
X101060000Y-107420000D01*
X101060000Y-114730000D02*
X101060000Y-115500000D01*
X102430000Y-108190000D02*
X99690000Y-108190000D01*
X102430000Y-114730000D02*
X102430000Y-108190000D01*
%TO.C,R32*%
X106490000Y-95500000D02*
X106490000Y-102040000D01*
X106490000Y-102040000D02*
X109230000Y-102040000D01*
X107860000Y-95500000D02*
X107860000Y-94730000D01*
X107860000Y-102040000D02*
X107860000Y-102810000D01*
X109230000Y-95500000D02*
X106490000Y-95500000D01*
X109230000Y-102040000D02*
X109230000Y-95500000D01*
%TO.C,R30*%
X113290000Y-95500000D02*
X113290000Y-102040000D01*
X113290000Y-102040000D02*
X116030000Y-102040000D01*
X114660000Y-95500000D02*
X114660000Y-94730000D01*
X114660000Y-102040000D02*
X114660000Y-102810000D01*
X116030000Y-95500000D02*
X113290000Y-95500000D01*
X116030000Y-102040000D02*
X116030000Y-95500000D01*
%TO.C,R24*%
X103090000Y-108190000D02*
X103090000Y-114730000D01*
X103090000Y-114730000D02*
X105830000Y-114730000D01*
X104460000Y-108190000D02*
X104460000Y-107420000D01*
X104460000Y-114730000D02*
X104460000Y-115500000D01*
X105830000Y-108190000D02*
X103090000Y-108190000D01*
X105830000Y-114730000D02*
X105830000Y-108190000D01*
%TO.C,R34*%
X99690000Y-95500000D02*
X99690000Y-102040000D01*
X99690000Y-102040000D02*
X102430000Y-102040000D01*
X101060000Y-95500000D02*
X101060000Y-94730000D01*
X101060000Y-102040000D02*
X101060000Y-102810000D01*
X102430000Y-95500000D02*
X99690000Y-95500000D01*
X102430000Y-102040000D02*
X102430000Y-95500000D01*
%TO.C,R17*%
X113290000Y-108190000D02*
X113290000Y-114730000D01*
X113290000Y-114730000D02*
X116030000Y-114730000D01*
X114660000Y-108190000D02*
X114660000Y-107420000D01*
X114660000Y-114730000D02*
X114660000Y-115500000D01*
X116030000Y-108190000D02*
X113290000Y-108190000D01*
X116030000Y-114730000D02*
X116030000Y-108190000D01*
%TO.C,R21*%
X106490000Y-108190000D02*
X106490000Y-114730000D01*
X106490000Y-114730000D02*
X109230000Y-114730000D01*
X107860000Y-108190000D02*
X107860000Y-107420000D01*
X107860000Y-114730000D02*
X107860000Y-115500000D01*
X109230000Y-108190000D02*
X106490000Y-108190000D01*
X109230000Y-114730000D02*
X109230000Y-108190000D01*
%TO.C,R33*%
X103090000Y-95500000D02*
X103090000Y-102040000D01*
X103090000Y-102040000D02*
X105830000Y-102040000D01*
X104460000Y-95500000D02*
X104460000Y-94730000D01*
X104460000Y-102040000D02*
X104460000Y-102810000D01*
X105830000Y-95500000D02*
X103090000Y-95500000D01*
X105830000Y-102040000D02*
X105830000Y-95500000D01*
%TO.C,R31*%
X109890000Y-95500000D02*
X109890000Y-102040000D01*
X109890000Y-102040000D02*
X112630000Y-102040000D01*
X111260000Y-95500000D02*
X111260000Y-94730000D01*
X111260000Y-102040000D02*
X111260000Y-102810000D01*
X112630000Y-95500000D02*
X109890000Y-95500000D01*
X112630000Y-102040000D02*
X112630000Y-95500000D01*
%TD*%
D16*
X125750000Y-74600000D03*
X94750000Y-74600000D03*
X120250000Y-119754500D03*
X117750000Y-119754500D03*
X115250000Y-119754500D03*
X112750000Y-119754500D03*
X110250000Y-119754500D03*
X107750000Y-119754500D03*
X105250000Y-119754500D03*
X102750000Y-119754500D03*
X100250000Y-119754500D03*
X120250000Y-122754500D03*
X117750000Y-122754500D03*
X115250000Y-122754500D03*
X112750000Y-122754500D03*
X110250000Y-122754500D03*
X107750000Y-122754500D03*
X105250000Y-122754500D03*
X102750000Y-122754500D03*
X100250000Y-122754500D03*
X94750000Y-124254500D03*
X125750000Y-124254500D03*
X94750000Y-115450000D03*
D17*
X113150000Y-83650000D03*
X113150000Y-82250000D03*
X112450000Y-84350000D03*
X112450000Y-82950000D03*
X112450000Y-81550000D03*
X111750000Y-83650000D03*
X111750000Y-82250000D03*
X111050000Y-84350000D03*
X111050000Y-82950000D03*
X111050000Y-81550000D03*
X110350000Y-83650000D03*
X110350000Y-82250000D03*
D16*
X96530000Y-87440000D03*
X96530000Y-93220000D03*
D18*
X92880000Y-86010000D03*
X92880000Y-94650000D03*
D19*
X97030000Y-86010000D03*
X97030000Y-94650000D03*
D16*
X111260000Y-106380000D03*
X111260000Y-116540000D03*
X101060000Y-106380000D03*
X101060000Y-116540000D03*
X107860000Y-93690000D03*
X107860000Y-103850000D03*
X114660000Y-93690000D03*
X114660000Y-103850000D03*
X104460000Y-106380000D03*
X104460000Y-116540000D03*
X101060000Y-93690000D03*
X101060000Y-103850000D03*
X114660000Y-106380000D03*
X114660000Y-116540000D03*
X107860000Y-106380000D03*
X107860000Y-116540000D03*
X104460000Y-93690000D03*
X104460000Y-103850000D03*
X111260000Y-93690000D03*
X111260000Y-103850000D03*
M02*
