M48
; DRILL file {KiCad 8.0.8} date 2025-05-08T14:25:14+0100
; FORMAT={-:-/ absolute / metric / decimal}
; #@! TF.CreationDate,2025-05-08T14:25:14+01:00
; #@! TF.GenerationSoftware,Kicad,Pcbnew,8.0.8
; #@! TF.FileFunction,Plated,1,2,PTH
FMAT,2
METRIC
; #@! TA.AperFunction,Plated,PTH,ViaDrill
T1C0.300
; #@! TA.AperFunction,Plated,PTH,ComponentDrill
T2C0.300
; #@! TA.AperFunction,Plated,PTH,ViaDrill
T3C0.400
; #@! TA.AperFunction,Plated,PTH,ComponentDrill
T4C0.650
; #@! TA.AperFunction,Plated,PTH,ComponentDrill
T5C0.800
; #@! TA.AperFunction,Plated,PTH,ComponentDrill
T6C1.200
; #@! TA.AperFunction,Plated,PTH,ComponentDrill
T7C3.250
; #@! TA.AperFunction,Plated,PTH,ComponentDrill
T8C3.500
%
G90
G05
T1
X91.105Y-83.22
X101.74Y-102.05
X102.82Y-79.24
X103.73Y-102.56
X105.373Y-102.56
X107.45Y-102.56
X108.772Y-102.56
X110.75Y-102.56
X115.15Y-102.44
X122.91Y-105.38
X127.0Y-109.63
T2
X110.35Y-82.25
X110.35Y-83.65
X111.05Y-81.55
X111.05Y-82.95
X111.05Y-84.35
X111.75Y-82.25
X111.75Y-83.65
X112.45Y-81.55
X112.45Y-82.95
X112.45Y-84.35
X113.15Y-82.25
X113.15Y-83.65
T3
X91.79Y-76.68
X91.932Y-101.62
X94.445Y-103.24
X94.46Y-98.0
X94.46Y-99.0
X94.55Y-94.8
X94.58Y-85.51
X95.0Y-108.0
X95.562Y-106.55
X95.715Y-98.0
X96.06Y-104.5
X96.35Y-92.1
X98.255Y-98.0
X98.51Y-108.0
X98.8Y-76.875
X98.8Y-87.13
X98.95Y-98.8
X98.95Y-100.07
X98.98Y-89.16
X99.0Y-88.13
X99.32Y-91.61
X99.589Y-76.125
X99.93Y-108.4
X101.06Y-108.045
X103.05Y-90.67
X103.51Y-107.77
X105.41Y-108.1
X106.89Y-94.87
X106.91Y-107.77
X108.2Y-78.525
X108.81Y-107.77
X108.981Y-77.775
X109.01Y-89.27
X109.83Y-88.13
X110.27Y-90.18
X110.31Y-107.77
X111.14Y-79.38
X111.38Y-92.18
X112.172Y-108.36
X113.6Y-95.25
X113.61Y-75.43
X114.159Y-92.175
X116.44Y-74.4
X116.7Y-116.64
X117.575Y-74.4
X117.575Y-75.43
X117.595Y-85.875
X117.595Y-86.975
X119.24Y-93.22
X120.62Y-91.13
X120.69Y-103.85
X121.38Y-114.6
X122.38Y-79.38
X122.38Y-83.13
X124.35Y-85.48
X125.04Y-83.13
X126.2Y-79.38
X126.56Y-106.37
X127.35Y-92.98
X127.85Y-116.17
T5
X101.06Y-93.69
X101.06Y-103.85
X101.06Y-106.38
X101.06Y-116.54
X104.46Y-93.69
X104.46Y-103.85
X104.46Y-106.38
X104.46Y-116.54
X107.86Y-93.69
X107.86Y-103.85
X107.86Y-106.38
X107.86Y-116.54
X111.26Y-93.69
X111.26Y-103.85
X111.26Y-106.38
X111.26Y-116.54
X114.66Y-93.69
X114.66Y-103.85
X114.66Y-106.38
X114.66Y-116.54
T6
X100.25Y-119.754
X100.25Y-122.754
X102.75Y-119.754
X102.75Y-122.754
X105.25Y-119.754
X105.25Y-122.754
X107.75Y-119.754
X107.75Y-122.754
X110.25Y-119.754
X110.25Y-122.754
X112.75Y-119.754
X112.75Y-122.754
X115.25Y-119.754
X115.25Y-122.754
X117.75Y-119.754
X117.75Y-122.754
X120.25Y-119.754
X120.25Y-122.754
T7
X94.75Y-124.254
X125.75Y-124.254
T8
X94.75Y-74.6
X94.75Y-115.45
X125.75Y-74.6
T4
G00X93.28Y-86.01
M15
G01X92.48Y-86.01
M16
G05
G00X93.28Y-94.65
M15
G01X92.48Y-94.65
M16
G05
G00X97.58Y-86.01
M15
G01X96.48Y-86.01
M16
G05
G00X97.58Y-94.65
M15
G01X96.48Y-94.65
M16
G05
M30
